<?xml version="1.0" encoding="utf-8"?>
<!-- Generator: Adobe Illustrator 27.2.0, SVG Export Plug-In . SVG Version: 6.00 Build 0)  -->
<svg version="1.1" id="Camada_1" xmlns="http://www.w3.org/2000/svg" xmlns:xlink="http://www.w3.org/1999/xlink" x="0px" y="0px"
	 viewBox="0 0 60 40" style="enable-background:new 0 0 60 40;" xml:space="preserve">
<style type="text/css">
	.st0{fill:#FFFFFF;}
</style>
<g>
	<g>
		<path class="st0" d="M13.2,35.9c-0.1,0-0.3,0-0.4,0s-0.3,0-0.5-0.1v-2.7c0.1,0,0.3,0,0.4,0s0.3,0,0.4,0c0.2,0,0.3,0,0.5,0
			s0.3,0.1,0.4,0.1c0.1,0.1,0.2,0.1,0.2,0.2c0.1,0.1,0.1,0.2,0.1,0.4c0,0.2-0.1,0.4-0.3,0.5c0.2,0.1,0.3,0.2,0.4,0.3
			c0.1,0.1,0.1,0.2,0.1,0.4c0,0.3-0.1,0.5-0.3,0.7C13.9,35.8,13.6,35.9,13.2,35.9z M12.9,34.2h0.3c0.2,0,0.3,0,0.4-0.1
			c0.1,0,0.1-0.1,0.1-0.2s0-0.2-0.1-0.2c-0.1,0-0.2-0.1-0.4-0.1c-0.1,0-0.1,0-0.2,0s-0.1,0-0.2,0L12.9,34.2L12.9,34.2z M12.9,34.7
			v0.7c0,0,0.1,0,0.1,0c0.1,0,0.1,0,0.2,0c0.2,0,0.3,0,0.4-0.1c0.1,0,0.2-0.2,0.2-0.3c0-0.1-0.1-0.2-0.1-0.3c-0.1,0-0.2-0.1-0.4-0.1
			C13.3,34.7,12.9,34.7,12.9,34.7z"/>
		<path class="st0" d="M17.4,34.5c0,0.2,0,0.5-0.1,0.6s-0.2,0.3-0.3,0.5s-0.3,0.2-0.4,0.3s-0.4,0.1-0.5,0.1c-0.2,0-0.4,0-0.5-0.1
			s-0.3-0.2-0.4-0.3c-0.1-0.1-0.2-0.3-0.3-0.5c-0.1-0.2-0.1-0.4-0.1-0.6s0-0.5,0.1-0.6s0.2-0.3,0.3-0.5c0.1-0.1,0.3-0.2,0.4-0.3
			c0.2-0.1,0.3-0.1,0.5-0.1c0.2,0,0.4,0,0.5,0.1s0.3,0.2,0.4,0.3c0.1,0.1,0.2,0.3,0.3,0.5S17.4,34.2,17.4,34.5z M15.3,34.5
			c0,0.1,0,0.3,0.1,0.4s0.1,0.2,0.1,0.3c0.1,0.1,0.1,0.1,0.2,0.2c0.1,0,0.2,0.1,0.3,0.1c0.1,0,0.2,0,0.3-0.1s0.2-0.1,0.2-0.2
			s0.1-0.2,0.1-0.3c0-0.1,0-0.2,0-0.4s0-0.3,0-0.4c0-0.1-0.1-0.2-0.1-0.3c-0.1-0.1-0.1-0.1-0.2-0.2s-0.2-0.1-0.3-0.1
			c-0.1,0-0.2,0-0.3,0.1c-0.1,0-0.2,0.1-0.2,0.2c-0.1,0.1-0.1,0.2-0.1,0.3S15.3,34.4,15.3,34.5z"/>
		<path class="st0" d="M19.6,35.3v0.5h-1.9v-2.8h0.6v2.2H19.6z"/>
		<path class="st0" d="M19.9,35.9v-2.8h1.9v0.5h-1.2v0.5h1.1v0.5h-1.1v0.7h1.3v0.5L19.9,35.9L19.9,35.9z"/>
		<path class="st0" d="M24.2,33.1v0.5h-0.8v2.2h-0.6v-2.2h-0.8v-0.5H24.2z"/>
		<path class="st0" d="M27,34.5c0,0.2,0,0.5-0.1,0.6s-0.2,0.3-0.3,0.5s-0.3,0.2-0.4,0.3s-0.4,0.1-0.5,0.1c-0.2,0-0.4,0-0.5-0.1
			s-0.3-0.2-0.4-0.3c-0.1-0.1-0.2-0.3-0.3-0.5c-0.1-0.2-0.1-0.4-0.1-0.6s0-0.5,0.1-0.6s0.2-0.3,0.3-0.5c0.1-0.1,0.3-0.2,0.4-0.3
			c0.2-0.1,0.3-0.1,0.5-0.1s0.4,0,0.5,0.1s0.3,0.2,0.4,0.3c0.1,0.1,0.2,0.3,0.3,0.5C27,34,27,34.2,27,34.5z M24.9,34.5
			c0,0.1,0,0.3,0,0.4s0.1,0.2,0.1,0.3c0.1,0.1,0.1,0.1,0.2,0.2s0.2,0.1,0.3,0.1c0.1,0,0.2,0,0.3-0.1s0.2-0.1,0.2-0.2
			s0.1-0.2,0.1-0.3c0-0.1,0-0.2,0-0.4s0-0.3,0-0.4c0-0.1-0.1-0.2-0.1-0.3c-0.1-0.1-0.1-0.1-0.2-0.2s-0.2-0.1-0.3-0.1
			c-0.1,0-0.2,0-0.3,0.1c-0.1,0-0.2,0.1-0.2,0.2c-0.1,0.1-0.1,0.2-0.1,0.3S24.9,34.4,24.9,34.5z"/>
		<path class="st0" d="M29.1,35.9c-0.1,0-0.3,0-0.5,0c-0.1,0-0.3,0-0.5-0.1v-2.7c0.1,0,0.3,0,0.4,0s0.3,0,0.4,0c0.2,0,0.3,0,0.5,0
			c0.1,0,0.3,0.1,0.4,0.1s0.2,0.1,0.2,0.2c0.1,0.1,0.1,0.2,0.1,0.4c0,0.2-0.1,0.4-0.3,0.5c0.2,0.1,0.3,0.2,0.4,0.3
			c0.1,0.1,0.1,0.2,0.1,0.4c0,0.3-0.1,0.5-0.3,0.7C29.8,35.8,29.5,35.9,29.1,35.9z M28.8,34.2H29c0.2,0,0.3,0,0.4-0.1
			c0.1,0,0.1-0.1,0.1-0.2s0-0.2-0.1-0.2c-0.1,0-0.2-0.1-0.4-0.1c0,0-0.1,0-0.2,0s-0.1,0-0.2,0L28.8,34.2L28.8,34.2z M28.8,34.7v0.7
			c0,0,0.1,0,0.1,0c0,0,0.1,0,0.2,0c0.2,0,0.3,0,0.5-0.1c0.1,0,0.2-0.2,0.2-0.3c0-0.1,0-0.2-0.1-0.3c-0.1,0-0.2-0.1-0.4-0.1
			C29.2,34.7,28.8,34.7,28.8,34.7z"/>
		<path class="st0" d="M32.5,35.9c0-0.1-0.1-0.2-0.1-0.3s-0.1-0.2-0.1-0.3h-1.1c0,0.1-0.1,0.2-0.1,0.3S31,35.8,31,35.9h-0.6
			c0.1-0.3,0.2-0.6,0.3-0.8c0.1-0.2,0.2-0.5,0.3-0.7c0.1-0.2,0.2-0.4,0.3-0.6s0.2-0.4,0.3-0.6H32c0.1,0.2,0.2,0.4,0.3,0.6
			s0.2,0.4,0.3,0.6s0.2,0.5,0.3,0.7c0.1,0.2,0.2,0.5,0.3,0.8H32.5z M31.7,33.7c0,0,0,0.1-0.1,0.2c0,0.1-0.1,0.2-0.1,0.2
			s-0.1,0.2-0.1,0.3c0,0.1-0.1,0.2-0.1,0.3h0.8c0-0.1-0.1-0.2-0.1-0.3c0-0.1-0.1-0.2-0.1-0.3c0-0.1-0.1-0.2-0.1-0.2
			C31.8,33.8,31.8,33.8,31.7,33.7z"/>
		<path class="st0" d="M35.2,35.9c-0.2-0.3-0.4-0.6-0.6-0.9c-0.2-0.3-0.4-0.6-0.7-0.9v1.8h-0.6v-2.8h0.5c0.1,0.1,0.2,0.2,0.3,0.3
			s0.2,0.3,0.3,0.4c0.1,0.2,0.2,0.3,0.3,0.5s0.2,0.3,0.3,0.5v-1.6h0.6v2.8L35.2,35.9L35.2,35.9z"/>
		<path class="st0" d="M37.5,35.9c-0.5,0-0.8-0.1-1-0.4c-0.2-0.2-0.3-0.6-0.3-1.1c0-0.2,0-0.4,0.1-0.6s0.2-0.3,0.3-0.5
			c0.1-0.1,0.3-0.2,0.5-0.3c0.2-0.1,0.4-0.1,0.6-0.1c0.1,0,0.2,0,0.3,0s0.2,0,0.2,0.1s0.1,0,0.2,0.1s0.1,0,0.1,0.1l-0.2,0.5
			c-0.1,0-0.2-0.1-0.3-0.1c-0.1,0-0.2,0-0.4,0c-0.1,0-0.2,0-0.3,0s-0.2,0.1-0.2,0.2s-0.1,0.2-0.2,0.3c0,0.1-0.1,0.2-0.1,0.4
			c0,0.1,0,0.2,0,0.4c0,0.1,0.1,0.2,0.1,0.3c0.1,0.1,0.1,0.1,0.2,0.2c0.1,0,0.2,0.1,0.4,0.1c0.1,0,0.2,0,0.2,0s0.1,0,0.2,0
			c0.1,0,0.1,0,0.2,0s0.1,0,0.1,0l0.2,0.5c-0.1,0-0.2,0.1-0.4,0.1C37.9,35.9,37.7,35.9,37.5,35.9z"/>
		<path class="st0" d="M40.6,35.9c0-0.1-0.1-0.2-0.1-0.3s-0.1-0.2-0.1-0.3h-1.1c0,0.1-0.1,0.2-0.1,0.3s-0.1,0.2-0.1,0.3h-0.7
			c0.1-0.3,0.2-0.6,0.3-0.8c0.1-0.2,0.2-0.5,0.3-0.7c0.1-0.2,0.2-0.4,0.3-0.6s0.2-0.4,0.3-0.6h0.6c0.1,0.2,0.2,0.4,0.3,0.6
			s0.2,0.4,0.3,0.6s0.2,0.5,0.3,0.7c0.1,0.2,0.2,0.5,0.3,0.8H40.6z M40.3,32.4l-0.7,0.6l-0.3-0.2L40,32L40.3,32.4z M39.9,33.7
			c0,0,0,0.1-0.1,0.2c0,0.1-0.1,0.2-0.1,0.2s-0.1,0.2-0.1,0.3c0,0.1-0.1,0.2-0.1,0.3h0.8c0-0.1-0.1-0.2-0.1-0.3
			c0-0.1-0.1-0.2-0.1-0.3C40,34,40,34,40,33.9C39.9,33.8,39.9,33.8,39.9,33.7z"/>
		<path class="st0" d="M42.3,33.1c0.4,0,0.7,0.1,1,0.2s0.3,0.4,0.3,0.7c0,0.2,0,0.3-0.1,0.5c-0.1,0.1-0.2,0.2-0.4,0.3
			c0.1,0.1,0.1,0.2,0.2,0.2c0.1,0.1,0.1,0.2,0.2,0.3s0.1,0.2,0.2,0.3c0.1,0.1,0.1,0.2,0.2,0.3h-0.7c0-0.1-0.1-0.2-0.2-0.3
			c0-0.1-0.1-0.2-0.2-0.3s-0.1-0.2-0.2-0.2s-0.1-0.2-0.2-0.2h-0.3v1h-0.6v-2.7c0.1,0,0.3,0,0.4-0.1S42.2,33.1,42.3,33.1z M42.3,33.6
			c0,0-0.1,0-0.1,0c0,0-0.1,0-0.1,0v0.8h0.2c0.2,0,0.4,0,0.5-0.1S43,34.1,43,34s0-0.2-0.2-0.3C42.7,33.6,42.5,33.6,42.3,33.6z"/>
		<path class="st0" d="M44,33.1h0.6v2.8H44V33.1z"/>
		<path class="st0" d="M47.7,34.5c0,0.2,0,0.5-0.1,0.6s-0.2,0.3-0.3,0.5c-0.1,0.1-0.3,0.2-0.4,0.3s-0.3,0.1-0.5,0.1
			c-0.2,0-0.4,0-0.5-0.1s-0.3-0.2-0.4-0.3c-0.1-0.1-0.2-0.3-0.3-0.5C45,34.9,45,34.7,45,34.5s0-0.5,0.1-0.6c0.1-0.2,0.2-0.3,0.3-0.5
			c0.1-0.1,0.3-0.2,0.4-0.3c0.2-0.1,0.3-0.1,0.5-0.1s0.4,0,0.5,0.1s0.3,0.2,0.4,0.3c0.1,0.1,0.2,0.3,0.3,0.5
			C47.7,34,47.7,34.2,47.7,34.5z M45.6,34.5c0,0.1,0,0.3,0,0.4s0.1,0.2,0.1,0.3c0.1,0.1,0.1,0.1,0.2,0.2s0.2,0.1,0.3,0.1
			s0.2,0,0.3-0.1s0.2-0.1,0.2-0.2S47,35,47,34.9s0-0.2,0-0.4s0-0.3,0-0.4s-0.1-0.2-0.1-0.3s-0.1-0.1-0.2-0.2s-0.2-0.1-0.3-0.1
			c-0.1,0-0.2,0-0.3,0.1c-0.1,0-0.2,0.1-0.2,0.2c-0.1,0.1-0.1,0.2-0.1,0.3C45.6,34.2,45.6,34.4,45.6,34.5z"/>
	</g>
</g>
<g>
	<path class="st0" d="M48.4,3.2c0.4,0,0.8,0,1.2,0c0,9.2,0,18.4,0,27.6c-0.4,0-0.8,0-1.2,0C48.4,21.6,48.4,12.4,48.4,3.2z"/>
	<path class="st0" d="M32.3,3.2c0.4,0,0.8,0,1.1,0c0,9.2,0,18.4,0,27.6c-0.4,0-0.7,0-1.1,0C32.3,21.6,32.3,12.4,32.3,3.2z"/>
	<path class="st0" d="M38.2,3.2c0.4,0,0.8,0,1.1,0c0,9.2,0,18.4,0,27.6c-0.4,0-0.8,0-1.1,0C38.2,21.6,38.2,12.4,38.2,3.2z"/>
	<path class="st0" d="M20.8,3.2c0.3,0,0.6,0,0.9,0c0,9.2,0,18.4,0,27.6c-0.3,0-0.6,0-0.9,0C20.8,21.6,20.8,12.4,20.8,3.2z"/>
	<path class="st0" d="M10,30.8c-0.3,0-0.6,0-0.9,0c0-9.2,0-18.4,0-27.6c0.3,0,0.6,0,0.9,0C10,12.4,10,21.6,10,30.8z"/>
	<path class="st0" d="M28.2,3.2c0.2,0,0.4,0,0.7,0c0,9.2,0,18.4,0,27.6c-0.2,0-0.4,0-0.7,0C28.2,21.6,28.2,12.4,28.2,3.2z"/>
	<path class="st0" d="M12.8,30.8c-0.2,0-0.4,0-0.7,0c0-9.2,0-18.4,0-27.6c0.2,0,0.4,0,0.7,0C12.8,12.4,12.8,21.6,12.8,30.8z"/>
	<path class="st0" d="M27.4,30.8c-0.2,0-0.4,0-0.7,0c0-9.2,0-18.4,0-27.6c0.2,0,0.4,0,0.7,0C27.4,12.4,27.4,21.6,27.4,30.8z"/>
	<path class="st0" d="M44.9,30.8c-0.2,0-0.4,0-0.7,0c0-9.2,0-18.4,0-27.6c0.2,0,0.4,0,0.7,0C44.9,12.4,44.9,21.6,44.9,30.8z"/>
	<path class="st0" d="M20,30.8c-0.1,0-0.3,0-0.4,0c0-9.2,0-18.4,0-27.6c0.1,0,0.3,0,0.4,0C20,12.4,20,21.6,20,30.8z"/>
	<path class="st0" d="M22.5,3.2c0.2,0,0.3,0,0.4,0c0,9.2,0,18.4,0,27.6c-0.1,0-0.3,0-0.4,0C22.5,21.6,22.5,12.4,22.5,3.2z"/>
	<path class="st0" d="M30.2,30.8c-0.1,0-0.3,0-0.4,0c0-9.2,0-18.4,0-27.6c0.1,0,0.3,0,0.4,0C30.2,12.4,30.2,21.6,30.2,30.8z"/>
	<path class="st0" d="M34.2,3.2c0.2,0,0.3,0,0.4,0c0,9.2,0,18.4,0,27.6c-0.1,0-0.3,0-0.4,0C34.2,21.6,34.2,12.4,34.2,3.2z"/>
	<path class="st0" d="M41.5,3.2c0.2,0,0.3,0,0.4,0c0,9.2,0,18.4,0,27.6c-0.1,0-0.3,0-0.4,0C41.5,21.6,41.5,12.4,41.5,3.2z"/>
	<path class="st0" d="M14.1,30.8c-0.1,0-0.3,0-0.4,0c0-9.2,0-18.4,0-27.6c0.1,0,0.3,0,0.4,0C14.1,12.4,14.1,21.6,14.1,30.8z"/>
	<path class="st0" d="M18.1,3.2c0.1,0,0.3,0,0.4,0c0,9.2,0,18.4,0,27.6c-0.1,0-0.3,0-0.4,0C18.1,21.6,18.1,12.4,18.1,3.2z"/>
	<path class="st0" d="M35.7,3.2c0.1,0,0.2,0,0.3,0c0,9.2,0,18.4,0,27.6c-0.1,0-0.2,0-0.3,0C35.7,21.6,35.7,12.4,35.7,3.2z"/>
	<path class="st0" d="M37.1,3.2c0.1,0,0.2,0,0.3,0c0,9.2,0,18.4,0,27.6c-0.1,0-0.2,0-0.3,0C37.1,21.6,37.1,12.4,37.1,3.2z"/>
	<path class="st0" d="M11,3.2c0.1,0.1,0.1,0.2,0.1,0.3c0,0,0,0.1,0,0.2c0,8.9,0,17.9,0,26.8c0,0.2,0.1,0.5-0.2,0.4
		C10.9,21.6,10.9,12.4,11,3.2C10.9,3.2,10.9,3.2,11,3.2z"/>
	<path class="st0" d="M16.9,30.8c0-0.1-0.1-0.2-0.1-0.3c0,0,0-0.1,0-0.2c0-8.9,0-17.9,0-26.8c0-0.2-0.1-0.5,0.2-0.4
		C16.9,12.4,16.9,21.6,16.9,30.8C16.9,30.8,16.9,30.8,16.9,30.8z"/>
	<path class="st0" d="M31.5,30.8c0-0.1-0.1-0.2-0.1-0.3c0,0,0-0.1,0-0.2c0-8.9,0-17.9,0-26.8c0-0.2-0.1-0.5,0.2-0.4
		C31.5,12.4,31.5,21.6,31.5,30.8C31.5,30.8,31.5,30.8,31.5,30.8z"/>
	<path class="st0" d="M25.6,3.1c0,0.1,0.1,0.2,0.1,0.3c0,0,0,0.1,0,0.2c0,8.9,0,17.9,0,26.8c0,0.2,0.1,0.5-0.2,0.4
		C25.5,21.6,25.5,12.4,25.6,3.1C25.5,3.2,25.6,3.2,25.6,3.1z"/>
	<path class="st0" d="M40.2,3.1c0,0.1,0.1,0.2,0.1,0.3c0,0,0,0.1,0,0.1c0,8.9,0,17.9,0,26.9c0,0.2,0.1,0.5-0.2,0.4
		C40.1,21.6,40.1,12.4,40.2,3.1C40.1,3.2,40.2,3.2,40.2,3.1z"/>
	<path class="st0" d="M43.2,3.2c0,9.2,0,18.4,0,27.5c-0.2,0.1-0.2,0-0.2-0.2c0,0,0-0.1,0-0.1c0-8.9,0-17.9,0-26.8
		C43,3.4,43,3.1,43.2,3.2z"/>
	<path class="st0" d="M47.4,30.8c0-9.2,0-18.4,0-27.5c0.2-0.1,0.2,0,0.2,0.2c0,0,0,0.1,0,0.1c0,8.9,0,17.9,0,26.8
		C47.6,30.6,47.7,30.9,47.4,30.8z"/>
	<path class="st0" d="M24.2,3.2c0,9.2,0,18.4,0,27.5c-0.2,0.1-0.2,0-0.2-0.2c0,0,0-0.1,0-0.1c0-8.9,0-17.9,0-26.8
		C24,3.4,24,3.1,24.2,3.2z"/>
	<path class="st0" d="M50.3,3.2c0.2-0.1,0.2,0,0.2,0.2c0,0.4,0,0.8,0,1.2c0,8.6,0,17.1,0,25.6c0,0.1,0,0.3,0,0.5c-0.1,0-0.2,0-0.2,0
		C50.3,21.6,50.3,12.4,50.3,3.2z"/>
	<path class="st0" d="M51.8,3.2c0.1,0,0.2,0,0.2,0c0,9.2,0,18.4,0,27.5c-0.2,0.1-0.3,0.1-0.2-0.2c0-0.1,0-0.1,0-0.2
		c0-8.9,0-17.8,0-26.6C51.8,3.5,51.8,3.4,51.8,3.2z"/>
	<path class="st0" d="M8,30.7c0-9.2,0-18.3,0-27.5c0,0,0,0,0-0.1c0.1,0.1,0.1,0.1,0.1,0.2c0,0.1,0,0.2,0,0.2c0,8.9,0,17.8,0,26.8
		c0,0.1,0,0.2,0,0.2C8.1,30.7,8.1,30.7,8,30.7C8,30.8,8,30.8,8,30.7z"/>
	<path class="st0" d="M15.3,17c0-4.4,0-8.9,0-13.3c0-0.1,0-0.2,0-0.3c0-0.1,0.1-0.1,0.1-0.2c0,0.1,0.1,0.1,0.1,0.2
		c0,0.1,0,0.1,0,0.2c0,8.9,0,17.9,0,26.8c0,0.1,0,0.2,0,0.2c0,0.1-0.1,0.1-0.1,0.2c0-0.1-0.1-0.1-0.1-0.2c0-0.1,0-0.2,0-0.3
		C15.3,25.9,15.3,21.4,15.3,17z"/>
	<path class="st0" d="M46.1,30.8c0-0.1-0.1-0.2-0.1-0.3c0-0.1,0-0.1,0-0.2c0-8.9,0-17.8,0-26.7c0-0.2-0.1-0.5,0.2-0.4
		C46.2,12.4,46.2,21.6,46.1,30.8C46.1,30.8,46.1,30.8,46.1,30.8z"/>
</g>
</svg>
