<?xml version="1.0" encoding="utf-8"?>
<!-- Generator: Adobe Illustrator 27.2.0, SVG Export Plug-In . SVG Version: 6.00 Build 0)  -->
<svg version="1.1" id="Camada_1" xmlns="http://www.w3.org/2000/svg" xmlns:xlink="http://www.w3.org/1999/xlink" x="0px" y="0px"
	 viewBox="0 0 60 40" style="enable-background:new 0 0 60 40;" xml:space="preserve">
<style type="text/css">
	.st0{fill:#FFFFFF;}
	.st1{display:none;}
</style>
<g>
	<g>
		<path class="st0" d="M26.5,21.3c0-2.5,1.5-4.6,3.7-5.5c2.6-1,5.8,0.2,7.1,2.7c0.2,0.3,0.3,0.6,0.4,0.9c0.1,0.2,0,0.4-0.2,0.5
			c-2.2,1-4.4,1.9-6.6,2.8c-1.1,0.5-2.1,0.9-3.2,1.4c-0.4,0.2-0.4,0.2-0.6-0.2C26.7,23.1,26.5,22.2,26.5,21.3z M34.4,19
			c-0.1-0.1-0.2-0.2-0.3-0.3c-0.8-0.8-1.8-0.9-2.9-0.6c-1.2,0.4-2.1,1.5-2.1,2.8c0,0.3,0.1,0.4,0.4,0.2c1-0.4,2-0.8,2.9-1.2
			C33,19.6,33.7,19.3,34.4,19z"/>
		<path class="st1" d="M14.6,29.5c-0.8-0.1-1.7-0.3-2.5-0.5c-0.4-0.1-0.4-0.2-0.3-0.6c0.3-0.9,0.6-1.8,0.9-2.8
			c0.1-0.4,0.2-0.4,0.5-0.3c0.5,0.1,1,0.2,1.5,0.2c2.2-0.1,3.8-1.1,4.9-3c0.2-0.3,0.3-0.7,0.4-1.1c0.1-0.2,0.2-0.3,0.4-0.3
			c0.4,0.1,0.7,0.1,1.1,0.2c0.7,0.1,1.4,0.3,2.1,0.5c0.2,0,0.3,0.1,0.2,0.3c-0.2,0.7-0.4,1.4-0.8,2.1c-1,2-2.5,3.4-4.5,4.3
			c-0.9,0.4-1.8,0.7-2.7,0.7C15.5,29.3,15.1,29.5,14.6,29.5z"/>
		<path class="st0" d="M39.1,18.9c0-1.8,0-3.6,0-5.4c0-0.4,0-0.5,0.5-0.5c0.5,0,1,0,1.6,0c0.4,0,0.5,0.1,0.5,0.5c0,2.7,0,5.3,0,8
			c0,0.8,0,1.5,0,2.3c0,0.2,0.1,0.4,0.3,0.5c0.4,0.1,0.8,0.3,1.1,0.5c0.2,0.1,0.3,0.2,0.2,0.4c-0.3,0.6-0.5,1.2-0.7,1.7
			C42.4,27,42.2,27.1,42,27c-0.6-0.2-1.2-0.5-1.7-0.7c-0.9-0.4-1.2-1.2-1.2-2.1C39.1,22.4,39.1,20.6,39.1,18.9z"/>
		<path class="st0" d="M43.3,21.3c0-1.6,0.6-2.9,1.7-4.1c0.2-0.2,0.3-0.2,0.5,0c0.4,0.5,0.9,1,1.3,1.5c0.2,0.2,0.1,0.3,0,0.5
			c-1.2,1.3-1.2,3,0,4.3c0.2,0.2,0.2,0.3,0,0.5c-0.4,0.5-0.9,1-1.3,1.5c-0.2,0.2-0.3,0.2-0.6,0C43.9,24.2,43.4,22.8,43.3,21.3z"/>
		<path class="st0" d="M49,15.5c2.7,0,4.9,1.6,5.7,3.9c0.3,0.7,0.3,0.7-0.5,0.9c-0.5,0.1-1.1,0.2-1.6,0.3c-0.2,0-0.3,0-0.4-0.2
			c-0.5-1.3-1.3-2-2.7-2.2c-0.3,0-0.6,0-1,0.1c-0.3,0-0.4,0-0.5-0.3c-0.2-0.6-0.4-1.1-0.6-1.7c-0.1-0.4-0.1-0.5,0.3-0.6
			C48.2,15.6,48.7,15.5,49,15.5z"/>
		<path class="st0" d="M49,27.1c-0.5-0.1-0.9-0.2-1.3-0.2c-0.2,0-0.3-0.2-0.2-0.4c0.2-0.7,0.5-1.4,0.7-2c0-0.1,0.2-0.1,0.4-0.1
			c0.7,0.1,1.4,0.1,2.1-0.3c0.8-0.4,1.3-1,1.6-1.9c0.1-0.2,0.2-0.3,0.4-0.2c0.7,0.1,1.3,0.3,2,0.4c0.2,0,0.3,0.1,0.3,0.3
			c-0.4,1.4-1.2,2.6-2.4,3.4C51.4,26.8,50.2,27.1,49,27.1z"/>
		<path class="st0" d="M32.2,27.1c-1-0.1-2-0.4-2.9-0.9c-0.2-0.1-0.2-0.2-0.1-0.5c0.4-0.5,0.7-1.1,1.1-1.6c0.1-0.2,0.2-0.2,0.4-0.1
			c1.2,0.9,3.2,0.3,4-0.7c0.2-0.3,0.4-0.3,0.7-0.1c0.5,0.4,1,0.7,1.5,1c0.2,0.1,0.2,0.3,0.1,0.5c-0.8,1-1.8,1.7-3.1,2.1
			C33.3,27,32.7,27,32.2,27.1z"/>
	</g>
	<path class="st0" d="M8.4,12.8c0.1,0.1,0.2,0.2,0.3,0.3c0.8,0.9,1.6,1.8,2.4,2.6c0.2,0.2,0.2,0.4,0,0.6c-1.3,1.3-1.7,2.9-1.4,4.7
		c0.2,1,0.6,1.8,1.3,2.5c0.3,0.3,0.3,0.5,0,0.7c-0.8,0.8-1.5,1.7-2.2,2.5c-0.3,0.3-0.5,0.3-0.8,0c-2.5-2.7-3.4-5.8-2.5-9.4
		c0.4-1.6,1.3-3,2.5-4.2C8.1,13.1,8.2,13,8.4,12.8z"/>
	<path class="st0" d="M20.1,18.9c-0.1-0.1-0.2-0.2-0.3-0.4c-0.5-1.4-1.3-2.4-2.6-3.1c-1-0.5-2.1-0.8-3.3-0.5
		c-0.8,0.2-0.8,0.1-1.1-0.6c-0.3-0.9-0.6-1.9-1-2.8c-0.2-0.5,0.1-0.7,0.5-0.8c1.6-0.4,3.1-0.4,4.7,0c3,0.8,5.1,2.6,6.4,5.4
		c0.3,0.5,0.4,1.1,0.6,1.7c0,0.1-0.1,0.4-0.2,0.4C22.7,18.4,21.5,18.6,20.1,18.9z"/>
	<path class="st0" d="M14.8,29.7c-0.9-0.1-1.7-0.3-2.6-0.4c-0.4-0.1-0.5-0.2-0.4-0.6c0.4-1.1,0.7-2.3,1.2-3.4c0-0.1,0.4-0.2,0.6-0.2
		c1.2,0.2,2.4,0.1,3.5-0.4c1.3-0.7,2.2-1.8,2.7-3.1c0.1-0.4,0.3-0.4,0.6-0.4c1.1,0.2,2.2,0.5,3.3,0.7c0.3,0.1,0.5,0.1,0.4,0.5
		c-0.7,2.3-2,4.2-4,5.6C18.6,29,16.8,29.6,14.8,29.7z"/>
</g>
</svg>
