<?xml version="1.0" encoding="utf-8"?>
<!-- Generator: Adobe Illustrator 27.2.0, SVG Export Plug-In . SVG Version: 6.00 Build 0)  -->
<svg version="1.1" id="Camada_1" xmlns="http://www.w3.org/2000/svg" xmlns:xlink="http://www.w3.org/1999/xlink" x="0px" y="0px"
	 viewBox="0 0 60 40" style="enable-background:new 0 0 60 40;" xml:space="preserve">
<style type="text/css">
	.st0{fill:#FFFFFF;}
</style>
<g>
	<path class="st0" d="M53.1,27.3c-0.3,0-0.7,0-1,0c-0.7,0-1.5,0-2.2,0c-0.2,0-0.3,0-0.3-0.2c-0.1-0.6-0.2-1.1-0.4-1.7
		c0-0.2-0.1-0.2-0.3-0.2c-1.5,0-2.9,0-4.4,0c-0.2,0-0.3,0.1-0.3,0.2c-0.2,0.6-0.4,1.2-0.6,1.7c0,0.1-0.1,0.2-0.3,0.2
		c-1.2,0-2.4,0-3.5,0c0,0-0.1,0-0.2,0c0-0.1,0.1-0.2,0.1-0.3c1.8-4.3,3.6-8.7,5.5-13c0.3-0.8,0.9-1.2,1.7-1.2c1,0,1.9,0,2.9,0
		c0.2,0,0.3,0.1,0.3,0.2c1,4.7,2,9.4,3,14.1C53.1,27.2,53.1,27.2,53.1,27.3z M48.6,22.2c-0.4-1.8-0.7-3.6-1.1-5.4h-0.1
		c-0.6,1.8-1.3,3.6-2,5.4C46.5,22.2,47.5,22.2,48.6,22.2z"/>
	<path class="st0" d="M16.4,22.7c0.4-1.1,0.8-2.1,1.2-3.1c0.9-2.2,1.7-4.4,2.6-6.5c0.1-0.2,0.2-0.3,0.4-0.3c1.1,0,2.2,0,3.3,0
		c0.1,0,0.2,0,0.3,0c0,0.1-0.1,0.2-0.1,0.3c-1.9,4.7-3.9,9.3-5.8,14c-0.1,0.1-0.1,0.2-0.3,0.2c-1.2,0-2.4,0-3.6,0h-0.1
		c-0.2-0.6-0.3-1.3-0.5-1.9c-0.8-3.3-1.7-6.5-2.5-9.8c-0.2-0.6-0.5-1-1.1-1.3c-1-0.5-2.1-0.8-3.2-1.1c-0.1,0-0.3,0-0.2-0.2
		c0-0.1,0.1-0.1,0.2-0.2c0,0,0.1,0,0.2,0c2,0,3.9,0,5.9,0c1,0,1.7,0.5,1.8,1.5c0.5,2.7,1,5.4,1.5,8C16.4,22.5,16.4,22.5,16.4,22.7z"
		/>
	<path class="st0" d="M40.5,13.2c-0.2,1-0.4,2-0.6,3c-0.6-0.2-1.1-0.3-1.6-0.5c-0.8-0.2-1.5-0.2-2.3-0.1c-0.4,0.1-0.8,0.2-1.1,0.5
		c-0.4,0.4-0.5,0.9-0.1,1.3c0.3,0.3,0.6,0.5,0.9,0.7c0.7,0.4,1.5,0.8,2.2,1.3c2.9,1.8,2.1,5.3,0.2,6.7c-1,0.8-2.1,1.2-3.4,1.3
		c-1.8,0.2-3.6,0-5.3-0.5c-0.3-0.1-0.3-0.2-0.3-0.5c0.2-0.9,0.4-1.7,0.6-2.6c0-0.1,0-0.1,0.1-0.2c0.1,0.1,0.3,0.1,0.4,0.2
		c1.2,0.6,2.4,0.8,3.7,0.7c0.5,0,0.9-0.2,1.3-0.4c0.9-0.4,1-1.4,0.2-2c-0.5-0.4-1.1-0.7-1.6-1c-0.9-0.4-1.7-0.9-2.3-1.7
		c-1.2-1.3-1.1-3.3,0.1-4.8c0.8-1,1.9-1.6,3.1-1.9c1.9-0.5,3.8-0.4,5.7,0.3C40.4,13.2,40.5,13.2,40.5,13.2z"/>
	<path class="st0" d="M22.8,27.3c0.1-0.5,0.2-1,0.3-1.4c0.9-4.2,1.8-8.4,2.7-12.7c0.1-0.2,0.1-0.3,0.4-0.3c1,0,2,0,3,0
		c0.1,0,0.2,0,0.3,0c-0.1,0.3-0.1,0.6-0.2,0.9c-0.9,4.4-1.9,8.9-2.8,13.3c0,0.1-0.1,0.2-0.2,0.2C25.2,27.3,24,27.3,22.8,27.3
		C22.9,27.3,22.9,27.3,22.8,27.3z"/>
</g>
</svg>
