<?xml version="1.0" encoding="utf-8"?>
<!-- Generator: Adobe Illustrator 27.2.0, SVG Export Plug-In . SVG Version: 6.00 Build 0)  -->
<svg version="1.1" id="Camada_1" xmlns="http://www.w3.org/2000/svg" xmlns:xlink="http://www.w3.org/1999/xlink" x="0px" y="0px"
	 viewBox="0 0 60 40" style="enable-background:new 0 0 60 40;" xml:space="preserve">
<style type="text/css">
	.st0{fill:#FFFFFF;}
</style>
<g>
	<path class="st0" d="M6.1,20.6c0-0.6,0.2-1.2,0.7-1.6c0.6-0.6,1.2-1.2,1.8-1.8c0,0,0,0,0.1,0c0.3,0,0.5,0,0.8,0c0.2,0,0.4,0,0.6,0
		c0.4,0,0.7,0.2,0.9,0.5c0.8,0.8,1.6,1.6,2.3,2.3c0.4,0.4,1,0.5,1.5,0.1c0.1,0,0.1-0.1,0.2-0.2c0.8-0.8,1.5-1.5,2.3-2.3
		c0.4-0.4,0.8-0.5,1.3-0.5c0.2,0,0.5,0,0.7,0c0.1,0,0.2,0,0.3,0.1c0.5,0.6,1.1,1.1,1.6,1.7c0.2,0.2,0.4,0.5,0.6,0.9
		c0.1,0.2,0.1,0.5,0.1,0.8c0,0.5-0.1,0.9-0.3,1.3c-0.1,0.2-0.3,0.4-0.4,0.5c-0.5,0.6-1.1,1.1-1.7,1.7c-0.1,0.1-0.1,0.1-0.2,0.1
		c-0.3,0-0.5,0-0.8,0c-0.3,0-0.6-0.1-0.9-0.3c-0.1-0.1-0.2-0.2-0.3-0.3c-0.8-0.8-1.5-1.5-2.3-2.3c-0.5-0.5-1.2-0.5-1.7,0
		c-0.8,0.8-1.5,1.5-2.3,2.3c-0.4,0.4-0.8,0.5-1.3,0.5c-0.3,0-0.6,0-0.9,0c-0.2,0-0.2,0-0.3-0.1c-0.6-0.6-1.1-1.1-1.7-1.7
		c-0.3-0.3-0.5-0.7-0.6-1.1C6.2,21,6.2,20.8,6.1,20.6z"/>
	<path class="st0" d="M9.4,16.4c1-1,2-2,2.9-2.9c0.1-0.1,0.3-0.3,0.5-0.4c0.9-0.6,2.1-0.5,2.9,0.3c1,1,2,2,3,3c0,0,0,0,0.1,0.1
		c-0.1,0-0.2,0-0.3,0c-0.5,0-0.9,0.1-1.4,0.4c-0.1,0.1-0.2,0.2-0.3,0.3c-0.8,0.8-1.5,1.5-2.3,2.3c0,0-0.1,0.1-0.2,0.1
		c-0.2,0.1-0.4,0.1-0.5-0.1c-0.2-0.2-0.4-0.4-0.6-0.6c-0.6-0.6-1.2-1.1-1.7-1.7c-0.4-0.4-0.8-0.6-1.4-0.7
		C9.9,16.4,9.6,16.4,9.4,16.4C9.4,16.4,9.4,16.4,9.4,16.4z"/>
	<path class="st0" d="M9.4,24.8c0.1,0,0.2,0,0.4,0c0.7,0,1.3-0.2,1.8-0.7c0.8-0.8,1.5-1.5,2.3-2.3c0.2-0.2,0.5-0.2,0.7,0
		c0.8,0.8,1.5,1.5,2.3,2.3c0.5,0.5,1,0.7,1.7,0.7c0.1,0,0.1,0,0.2,0c0,0-0.1,0.1-0.1,0.1c-1,1-1.9,1.9-2.9,2.9
		c-0.4,0.4-0.9,0.7-1.5,0.7c-0.7,0.1-1.3-0.1-1.8-0.6C11.4,26.8,10.4,25.8,9.4,24.8C9.4,24.8,9.4,24.8,9.4,24.8z"/>
	<path class="st0" d="M25.5,22.4c0-1.6,0-3.2,0-4.9c0-0.8,0.3-1.6,0.8-2.2c0.5-0.6,1.1-0.9,1.8-1.1c0.3-0.1,0.6-0.1,0.9-0.1
		c1,0,2,0,3,0c1,0,1.9,0.5,2.6,1.2c0.2,0.3,0.4,0.6,0.6,0.9c0.1,0.3,0.2,0.6,0.2,0.9c0,0.3,0,0.6,0,0.9c0,0.5,0,1.1,0,1.6
		c0,0.3,0,0.6-0.1,0.8c-0.4,1.5-1.3,2.4-2.8,2.7c-0.2,0.1-0.5,0.1-0.7,0.1c-1.3,0-2.7,0-4,0c-0.1,0-0.2,0-0.3-0.1
		c-0.1-0.2,0-0.4,0.2-0.5c0,0,0.1,0,0.1,0c1.4,0,2.7,0,4.1,0c0.7,0,1.3-0.3,1.8-0.7c0.5-0.5,0.9-1.1,1-1.8c0-0.2,0-0.3,0-0.5
		c0-0.7,0-1.4,0-2.1c0-0.8-0.3-1.6-0.9-2.1c-0.5-0.5-1.1-0.7-1.7-0.8c-0.4,0-0.8,0-1.1,0c-0.7,0-1.4,0-2.1,0c-1.1,0-1.9,0.5-2.4,1.5
		c-0.3,0.5-0.4,1-0.4,1.5c0,3.2,0,6.4,0,9.6c0,0.1,0,0.1,0,0.2c0,0.1-0.2,0.2-0.3,0.2c-0.2,0-0.3-0.1-0.3-0.3c0,0,0-0.1,0-0.1
		C25.5,25.6,25.5,24,25.5,22.4C25.5,22.4,25.5,22.4,25.5,22.4z"/>
	<path class="st0" d="M41.6,14.1c0.3,0,0.7,0,1,0.1c0.5,0.1,1,0.3,1.4,0.7c0.8,0.8,1.6,1.6,2.4,2.4c0.2,0.2,0.4,0.4,0.5,0.5
		c0.3,0.3,0.7,0.3,0.9,0c0.9-0.9,1.9-1.9,2.8-2.8c0.4-0.4,0.9-0.7,1.6-0.8c0.1,0,0.2,0,0.3,0c0.4,0,0.7,0,1.1,0c0.1,0,0.1,0,0.2,0
		c0.1,0,0.1,0.1,0.1,0.2c0,0.3-0.1,0.4-0.4,0.4c-0.3,0-0.6,0-0.9,0c-0.6,0-1.1,0.2-1.5,0.6c-0.9,0.9-1.9,1.9-2.8,2.8
		c-0.2,0.2-0.4,0.3-0.7,0.4c-0.4,0.1-0.8,0-1-0.3c-0.3-0.2-0.5-0.5-0.7-0.7c-0.7-0.7-1.4-1.4-2.2-2.2c-0.4-0.4-1-0.7-1.6-0.7
		c-0.4,0-0.8,0-1.2,0c-0.2,0-0.3-0.1-0.3-0.3c0-0.2,0.1-0.3,0.3-0.3C41.2,14.1,41.4,14.1,41.6,14.1C41.6,14.1,41.6,14.1,41.6,14.1z"
		/>
	<path class="st0" d="M41.6,22.6c0.3,0,0.5,0,0.8,0c0.5,0,0.9-0.3,1.2-0.6c1-1,1.9-1.9,2.9-2.9c0.2-0.2,0.4-0.3,0.7-0.4
		c0.5-0.1,0.8,0.1,1.2,0.4c0.9,0.9,1.9,1.9,2.8,2.8c0.4,0.5,1,0.7,1.6,0.7c0.3,0,0.6,0,0.9,0c0.2,0,0.3,0.1,0.3,0.3
		c0,0.2-0.1,0.3-0.3,0.3c-0.4,0-0.8,0-1.1,0c-0.7,0-1.2-0.3-1.7-0.7c-1-1-1.9-1.9-2.9-2.9c-0.1-0.1-0.3-0.2-0.5-0.2
		c-0.2,0-0.4,0.1-0.5,0.2c-0.7,0.7-1.5,1.5-2.2,2.2c-0.3,0.3-0.5,0.6-0.8,0.8c-0.4,0.4-0.9,0.6-1.4,0.6c-0.4,0-0.9,0-1.3,0
		c-0.1,0-0.2,0-0.3,0c-0.2,0-0.3-0.1-0.3-0.3c0-0.2,0.1-0.3,0.3-0.3C41.2,22.6,41.4,22.6,41.6,22.6C41.6,22.6,41.6,22.6,41.6,22.6z"
		/>
	<path class="st0" d="M38.8,19.3c0,1.2,0,2.4,0,3.7c0,0.2-0.1,0.3-0.2,0.3c-0.2,0-0.3-0.1-0.4-0.2c0,0,0-0.1,0-0.1
		c0-2.4,0-4.8,0-7.1c0-0.5-0.3-0.9-0.7-1c-0.1,0-0.2,0-0.3,0c-0.4,0-0.8,0-1.2,0c-0.1,0-0.2,0-0.3-0.1c-0.1-0.1-0.1-0.2-0.1-0.3
		c0-0.1,0.1-0.2,0.2-0.2c0,0,0.1,0,0.1,0c0.4,0,0.9,0,1.3,0c0.7,0,1.4,0.6,1.5,1.3c0,0.2,0,0.3,0,0.5C38.8,17,38.8,18.2,38.8,19.3z"
		/>
	<path class="st0" d="M39.4,12.5c0,0.1,0,0.2-0.1,0.3c-0.2,0.2-0.4,0.4-0.5,0.5c-0.2,0.2-0.4,0.2-0.5,0c-0.2-0.2-0.4-0.4-0.5-0.5
		c-0.2-0.2-0.2-0.4,0-0.5c0.2-0.2,0.4-0.4,0.5-0.5c0.2-0.2,0.4-0.2,0.5,0c0.2,0.2,0.3,0.3,0.5,0.5C39.4,12.3,39.4,12.3,39.4,12.5z"
		/>
	<path class="st0" d="M40.7,26.7c0.2,0.1,0.2,0.2,0.2,0.4c0,0,0,0.1-0.1,0.1c-0.1,0-0.1,0.1-0.2,0.1c-0.3,0-0.6,0-0.9,0
		c0-0.4,0-0.8,0-1.1c0,0,0,0,0,0c0.3,0,0.5,0,0.8,0c0.3,0,0.3,0.2,0.2,0.4C40.8,26.7,40.7,26.7,40.7,26.7z M40,27.2
		c0.2,0,0.4,0,0.5,0c0.1,0,0.1-0.1,0.1-0.1c0-0.1,0-0.1-0.1-0.1c-0.2,0-0.4,0-0.6,0C40,26.9,40,27,40,27.2z M40,26.3
		c0,0.1,0,0.2,0,0.3c0.2,0,0.3,0,0.5,0c0.1,0,0.1,0,0.1-0.1c0-0.1-0.1-0.1-0.1-0.1C40.3,26.3,40.2,26.3,40,26.3z"/>
	<path class="st0" d="M47.8,27.1c0,0.1,0,0.1,0,0.2c0,0,0,0,0,0.1c-0.2,0-0.5,0.1-0.7,0.1c-0.3-0.1-0.5-0.4-0.4-0.7
		c0.1-0.3,0.3-0.5,0.7-0.5c0.2,0,0.3,0,0.5,0c0,0.1,0,0.1,0,0.2c-0.1,0-0.1,0-0.2,0c-0.1,0-0.2,0-0.4,0c-0.2,0-0.3,0.2-0.3,0.4
		c0,0.1,0,0.1,0,0.2c0.1,0.3,0.3,0.3,0.5,0.2C47.6,27.1,47.7,27.1,47.8,27.1z"/>
	<path class="st0" d="M45.3,26.4c0.1,0,0.2,0,0.3,0c0.2,0,0.3,0.1,0.3,0.3c0,0.2,0.1,0.4-0.1,0.5c-0.1,0.1-0.2,0.1-0.3,0.1
		c-0.1,0-0.2,0-0.4,0c-0.2,0-0.3-0.2-0.3-0.5c0-0.2,0.2-0.4,0.4-0.4C45.2,26.5,45.3,26.5,45.3,26.4C45.3,26.4,45.3,26.4,45.3,26.4z
		 M45.3,26.6C45.3,26.6,45.3,26.6,45.3,26.6c-0.2,0-0.3,0.1-0.3,0.2c0,0.3,0.1,0.3,0.3,0.3c0.1,0,0.2,0,0.2,0c0,0,0.1-0.1,0.1-0.1
		C45.7,26.8,45.6,26.6,45.3,26.6z"/>
	<path class="st0" d="M53,26.8c0-0.1,0-0.2-0.1-0.2c-0.1,0-0.2,0-0.3,0c-0.1,0-0.1,0-0.2,0c0-0.1,0-0.1,0-0.2c0,0,0.1,0,0.1,0
		c0.1,0,0.3,0,0.4,0c0.2,0,0.3,0.1,0.3,0.3c0,0.2,0,0.3,0,0.5c0,0,0,0.1,0,0.1c0,0-0.1,0-0.1,0c0,0-0.1,0-0.1,0
		c-0.1,0-0.2,0-0.4,0.1c-0.1,0-0.1,0-0.2,0c-0.2,0-0.2-0.1-0.2-0.3c0-0.1,0.1-0.2,0.3-0.2c0.1,0,0.2,0,0.4,0
		C52.9,26.8,53,26.8,53,26.8z M53,27c-0.1,0-0.3,0-0.4,0c0,0,0,0-0.1,0c-0.1,0-0.1,0.1,0,0.2c0,0,0.1,0,0.1,0c0.1,0,0.2,0,0.3,0
		C53.1,27.1,53.1,27.1,53,27z"/>
	<path class="st0" d="M49.1,26.9c-0.3,0-0.5,0-0.8,0c0,0.1,0,0.2,0.1,0.2c0.2,0,0.3,0,0.5,0c0,0,0.1,0,0.1,0c0,0.2,0,0.2-0.1,0.2
		c-0.1,0-0.3,0-0.4,0c-0.1,0-0.2,0-0.3-0.1C48,27.2,48,26.9,48,26.7c0.1-0.2,0.2-0.3,0.4-0.3c0.1,0,0.1,0,0.2,0
		C48.9,26.4,49.1,26.6,49.1,26.9z M48.3,26.8c0.2,0,0.4,0,0.6,0c0-0.1,0-0.2-0.2-0.2c-0.1,0-0.1,0-0.2,0
		C48.3,26.6,48.3,26.7,48.3,26.8z"/>
	<path class="st0" d="M41.9,26.8c0-0.1,0-0.2-0.1-0.2c-0.1,0-0.2,0-0.4,0c0,0-0.1,0-0.1,0c0-0.1,0-0.1,0-0.2c0.1,0,0.1,0,0.2,0
		c0.1,0,0.2,0,0.4,0c0.3,0,0.3,0.1,0.3,0.3c0,0.1,0,0.3,0,0.4c0,0,0,0.1,0,0.1c0,0-0.1,0-0.2,0c0,0-0.1,0-0.1,0
		c-0.1,0-0.3,0-0.4,0.1c0,0-0.1,0-0.1,0c-0.2,0-0.2-0.1-0.2-0.3c0-0.1,0.1-0.2,0.3-0.2C41.6,26.8,41.8,26.8,41.9,26.8z M41.9,27
		c-0.1,0-0.3,0-0.4,0c-0.1,0-0.1,0-0.1,0.1c0,0,0.1,0.1,0.1,0.1c0.1,0,0.2,0,0.3,0C41.9,27.1,41.9,27.1,41.9,27z"/>
	<path class="st0" d="M42.5,27.3c0-0.3,0-0.6,0-0.9c0.1,0,0.1,0,0.2,0c0,0,0,0,0.1,0c0.2,0,0.3,0,0.5,0c0.1,0,0.3,0.1,0.3,0.3
		c0,0.2,0,0.3,0,0.5c0,0,0,0.1-0.1,0.1c0,0,0,0,0,0c-0.1,0-0.1,0-0.1-0.1c0-0.1,0-0.2,0-0.4c0-0.2-0.1-0.2-0.2-0.2
		c-0.1,0-0.2,0-0.3,0c-0.1,0-0.1,0-0.1,0.1c0,0.1,0,0.3,0,0.4c0,0.1,0,0.1-0.1,0.1C42.6,27.3,42.5,27.3,42.5,27.3z"/>
	<path class="st0" d="M50.4,27.3c-0.1,0-0.1,0-0.2,0c0-0.1,0-0.2,0-0.4c0-0.3-0.1-0.3-0.3-0.3c-0.1,0-0.1,0-0.2,0c0,0.1,0,0.3,0,0.4
		c0,0,0,0,0,0.1c0,0.1-0.1,0.2-0.2,0.1c0,0,0,0,0-0.1c0-0.2,0-0.5,0-0.7c0-0.1,0.1-0.1,0.2-0.1c0,0,0.1,0,0.1,0c0.2,0,0.3-0.1,0.5,0
		c0.2,0,0.3,0.1,0.3,0.3C50.4,26.9,50.4,27.1,50.4,27.3z"/>
	<path class="st0" d="M51.3,27.1c0,0.2,0,0.2-0.2,0.2c-0.2,0-0.4-0.1-0.4-0.3c0-0.1,0-0.1,0-0.2c0-0.1,0-0.2,0-0.3
		c-0.1,0-0.1,0-0.2,0c0-0.1,0-0.1,0-0.2c0,0,0.1,0,0.2,0c0-0.1,0-0.2,0-0.3c0.1,0,0.1,0,0.2,0c0,0,0,0.1,0,0.1c0,0.1,0,0.1,0.1,0.1
		c0.1,0,0.1,0,0.2,0c0,0.1,0,0.1,0,0.2c-0.1,0-0.2,0-0.3,0c0,0.1,0,0.3,0,0.4c0,0.1,0.1,0.1,0.2,0.1C51.2,27.2,51.2,27.1,51.3,27.1z
		"/>
	<path class="st0" d="M44.6,27.1c0,0.1,0,0.1,0,0.2c-0.2,0-0.4,0.1-0.6,0c-0.1,0-0.2-0.1-0.2-0.3c-0.1-0.3,0-0.6,0.3-0.6
		c0.2,0,0.3,0,0.5,0c0,0.1,0,0.1,0,0.2c-0.1,0-0.1,0-0.2,0c-0.1,0-0.2,0-0.2,0c-0.1,0-0.2,0.1-0.2,0.2c0,0.2,0.1,0.4,0.4,0.3
		C44.4,27.1,44.5,27.1,44.6,27.1z"/>
	<path class="st0" d="M30.9,26.6c-0.1,0.1-0.1,0.3-0.2,0.4c0,0.1-0.1,0.2-0.1,0.3c0,0,0,0-0.1,0c0,0-0.1,0-0.1-0.1
		c-0.1-0.3-0.2-0.5-0.3-0.8c0,0,0,0,0,0c0.1,0,0.1,0,0.1,0.1c0.1,0.2,0.1,0.4,0.2,0.5c0,0,0,0.1,0,0.1c0.1-0.2,0.1-0.3,0.2-0.5
		c0-0.1,0.1-0.1,0.1-0.2c0,0,0-0.1,0.1-0.1c0,0,0.1,0,0.1,0.1c0.1,0.2,0.2,0.4,0.3,0.6c0,0,0,0.1,0,0.1c0.1-0.2,0.1-0.4,0.2-0.5
		c0,0,0-0.1,0-0.1c0-0.1,0.1-0.1,0.1-0.1c0,0.1-0.1,0.2-0.1,0.3c-0.1,0.2-0.1,0.3-0.2,0.5c0,0,0,0.1-0.1,0.1c0,0-0.1,0-0.1-0.1
		c-0.1-0.2-0.2-0.4-0.2-0.5C31,26.7,31,26.7,30.9,26.6z"/>
	<path class="st0" d="M35.8,26.5c0-0.1,0-0.2,0-0.4c0,0,0.1,0,0.1,0c0,0,0,0.1,0,0.1c0,0.3,0,0.7,0,1c0,0,0,0.1,0,0.1c0,0,0,0-0.1,0
		c0,0,0,0-0.1,0c-0.1,0-0.3,0.1-0.4,0.1c-0.3,0-0.5-0.2-0.5-0.5c0-0.3,0.2-0.4,0.5-0.4C35.5,26.5,35.7,26.5,35.8,26.5z M35.8,26.9
		c0-0.1,0-0.2,0-0.2c0,0,0-0.1-0.1-0.1c-0.1,0-0.2,0-0.4,0c-0.2,0-0.4,0.1-0.4,0.4c0,0.2,0.1,0.3,0.3,0.3c0.2,0,0.3,0,0.5,0
		c0,0,0.1,0,0.1-0.1C35.8,27,35.8,27,35.8,26.9z"/>
	<path class="st0" d="M37,26.5c0.2,0,0.4,0,0.5,0c0.2,0,0.3,0.1,0.3,0.2c0,0.1,0,0.2,0,0.3c0,0.1-0.1,0.2-0.2,0.3
		c-0.2,0.1-0.3,0.1-0.5,0c-0.1,0-0.1,0-0.2,0c0,0,0,0,0,0c0-0.4,0-0.7,0-1.1c0-0.1,0-0.1,0.1-0.1C37,26.2,37,26.4,37,26.5z M37,26.9
		C37,26.9,37,26.9,37,26.9c0,0.3,0,0.3,0.2,0.4c0,0,0.1,0,0.1,0c0.3,0,0.4-0.1,0.4-0.5c0-0.1-0.1-0.3-0.2-0.3c-0.2,0-0.3,0-0.5,0
		c0,0-0.1,0-0.1,0.1C37,26.7,37,26.8,37,26.9z"/>
	<path class="st0" d="M32.8,26.9c-0.3,0-0.6,0-0.9,0c0,0.1,0.1,0.2,0.2,0.3c0.2,0.1,0.3,0,0.5,0c0.1,0,0.1,0,0.2,0
		c0,0.1,0,0.1,0,0.1c-0.2,0-0.4,0.1-0.6,0c-0.3-0.1-0.4-0.4-0.3-0.5c0.1-0.3,0.4-0.4,0.7-0.3C32.8,26.5,32.9,26.7,32.8,26.9z
		 M32.7,26.8c0-0.2-0.2-0.3-0.4-0.3c-0.2,0-0.3,0.1-0.3,0.3C32.2,26.8,32.5,26.8,32.7,26.8z"/>
	<path class="st0" d="M27.8,27.3c0,0.1,0,0.2,0,0.3c-0.1,0-0.1,0-0.1,0c0-0.4,0-0.7,0-1.1c0,0,0,0,0,0c0.2,0,0.5,0,0.7,0
		c0.1,0,0.2,0.1,0.2,0.1c0.2,0.2,0.1,0.5,0,0.7c-0.1,0.1-0.3,0.1-0.4,0.1C28.1,27.3,28,27.3,27.8,27.3z M27.8,26.9
		c0,0.1,0,0.2,0,0.2c0,0,0,0.1,0.1,0.1c0.2,0,0.3,0.1,0.5,0c0.1,0,0.2-0.1,0.3-0.2c0-0.1,0-0.3-0.1-0.4c0,0-0.1-0.1-0.1-0.1
		c-0.1,0-0.2,0-0.4,0c-0.2,0-0.2,0-0.2,0.2C27.8,26.8,27.8,26.9,27.8,26.9z"/>
	<path class="st0" d="M34.7,26.9c-0.3,0-0.6,0-0.9,0c0,0.1,0.1,0.2,0.2,0.3c0.2,0.1,0.3,0,0.5,0c0.1,0,0.1,0,0.2,0
		c0,0,0,0.1-0.1,0.1c-0.2,0-0.4,0.1-0.6,0c-0.2,0-0.3-0.2-0.3-0.4c0-0.1,0-0.2,0.1-0.3c0.1-0.2,0.3-0.2,0.6-0.2c0,0,0,0,0,0
		C34.6,26.5,34.8,26.6,34.7,26.9z M34.6,26.8c0-0.2-0.1-0.3-0.3-0.3c-0.3,0-0.5,0.1-0.5,0.3C34.1,26.8,34.4,26.8,34.6,26.8z"/>
	<path class="st0" d="M53.6,26.1c0.1,0,0.2,0,0.2,0c0,0,0,0.1,0,0.1c0,0.3,0,0.7,0,1c0,0.1-0.1,0.1-0.1,0.1c-0.1,0-0.1,0-0.1-0.1
		C53.6,26.9,53.6,26.5,53.6,26.1C53.6,26.2,53.6,26.1,53.6,26.1z"/>
	<path class="st0" d="M29.5,26.4c0.1,0,0.2,0,0.3,0c0.2,0,0.2,0.2,0.2,0.3c0,0,0,0.1,0,0.1c0,0.2-0.1,0.3-0.3,0.4
		c-0.2,0-0.3,0-0.5,0C29,27.3,28.9,27,29,26.8c0.1-0.2,0.2-0.3,0.4-0.3C29.4,26.5,29.5,26.5,29.5,26.4
		C29.5,26.4,29.5,26.4,29.5,26.4z M29.5,27.3c0.1,0,0.1,0,0.2,0c0.2,0,0.3-0.1,0.3-0.3c0-0.2-0.1-0.3-0.2-0.4c-0.1,0-0.2,0-0.3,0
		c-0.3,0-0.3,0.2-0.3,0.5C29.1,27.2,29.2,27.3,29.5,27.3z"/>
	<path class="st0" d="M38.9,26.5c-0.2,0.3-0.3,0.6-0.5,1c-0.1,0.2-0.2,0.2-0.4,0.2c-0.1,0-0.1,0-0.1-0.1c0,0,0.1,0,0.1,0
		c0.1,0,0.2,0,0.2-0.1c0-0.1,0.1-0.1,0-0.2c-0.1-0.2-0.2-0.4-0.4-0.7c0,0,0-0.1,0-0.1c0.1,0,0.1,0,0.2,0.1c0.1,0.2,0.2,0.4,0.3,0.6
		c0,0,0,0,0.1,0.1c0.1-0.1,0.1-0.2,0.2-0.3c0.1-0.1,0.1-0.2,0.2-0.3C38.8,26.5,38.8,26.5,38.9,26.5z"/>
	<path class="st0" d="M52.2,26.4c0,0.1,0,0.1,0,0.2c-0.1,0-0.2,0-0.3,0c-0.1,0-0.1,0-0.1,0.1c0,0.1,0,0.3,0,0.4c0,0.1,0,0.1-0.1,0.1
		c0,0-0.1,0-0.1,0c0-0.3,0-0.6,0-0.9c0.1,0,0.1,0,0.2,0c0,0,0.1,0,0.1,0C51.9,26.5,52,26.4,52.2,26.4z"/>
	<path class="st0" d="M33.7,26.4c0,0.1,0,0.1-0.1,0.1c0,0,0,0-0.1,0c-0.2,0-0.3,0-0.3,0.3c0,0.1,0,0.3,0,0.4c0,0,0,0,0,0.1
		c0,0-0.1,0-0.1-0.1c0-0.2,0-0.5,0-0.7c0,0,0-0.1,0-0.1c0,0,0,0,0.1,0c0,0,0.1,0,0.1,0C33.4,26.5,33.5,26.5,33.7,26.4z"/>
	<path class="st0" d="M9.4,16.4C9.4,16.4,9.4,16.4,9.4,16.4C9.4,16.4,9.4,16.4,9.4,16.4C9.4,16.4,9.4,16.4,9.4,16.4z"/>
</g>
</svg>
