<?xml version="1.0" encoding="utf-8"?>
<!-- Generator: Adobe Illustrator 27.2.0, SVG Export Plug-In . SVG Version: 6.00 Build 0)  -->
<svg version="1.1" id="Camada_1" xmlns="http://www.w3.org/2000/svg" xmlns:xlink="http://www.w3.org/1999/xlink" x="0px" y="0px"
	 viewBox="0 0 60 40" style="enable-background:new 0 0 60 40;" xml:space="preserve">
<style type="text/css">
	.st0{fill:#FFFFFF;}
</style>
<g>
	<path class="st0" d="M47.8,20.3c0-0.1,0-0.2,0-0.3c-0.1,0-0.1,0-0.2,0c-0.9,0-1.7,0-2.6,0c-0.4,0-0.8,0-1.2,0.1
		c-0.3,0-0.6,0.1-0.9,0.3c0,0-0.1,0-0.1,0c-0.1-0.1,0-0.2-0.1-0.3c0,0,0,0-0.1,0c-1.9,0-3.8,0-5.8,0c0,0,0,0-0.1,0
		c0,0.1,0,0.2,0,0.3c0,0-0.1,0-0.1,0C36.4,20.1,36,20,35.6,20c-0.6,0-1.2,0-1.8,0c-0.8,0-1.6,0-2.4,0c-0.1,0-0.1,0-0.2,0
		c-0.1,0.1,0,0.3,0,0.4c0,0-0.1,0-0.1,0c-0.4-0.2-0.8-0.3-1.2-0.3c-0.2,0-0.4,0-0.6,0c-1.4,0-2.7,0-4.1,0c0,0,0,0,0,0
		c-0.1,0-0.2,0-0.3,0.1c-0.3,0.3-0.6,0.7-0.9,1c0,0-0.1,0.1-0.1,0.2c-0.1,0-0.1-0.1-0.1-0.1c-0.3-0.3-0.6-0.7-0.9-1
		C22.6,20,22.5,20,22.4,20c-2,0-3.9,0-5.9,0c-0.1,0-0.1,0-0.2,0c0,0.3,0,5.4,0,6.8c0,0,0,0.1,0,0.1c0,0,0,0,0,0c0,0,0,0,0,0
		c2,0,4.1,0,6.1,0c0.2-0.2,0.4-0.4,0.6-0.6c0.2-0.2,0.4-0.4,0.6-0.7c0.4,0.4,0.8,0.9,1.2,1.3c0.3,0,3.5,0,3.7,0c0,0,0-0.1,0-0.2
		c0-0.4,0-0.9,0-1.3c0-0.1,0-0.2,0-0.2c0.1,0,0.1,0,0.2,0c0.3,0,0.7,0,1,0c0.4-0.1,0.9-0.2,1.2-0.4c0,0,0.1,0,0.1,0
		c0,0.1,0,0.2,0,0.4c0,0.1,0,0.2,0,0.4c0,0.1,0,0.3,0,0.4c0,0.1,0,0.2,0,0.4c0,0.1,0,0.2,0,0.4c0,0.1,0,0.2,0,0.3c0.2,0,2.6,0,3,0
		c0.1,0,0-0.1,0-0.2c0-0.5,0-1,0-1.5c0-0.1,0-0.2,0-0.2c0,0,0.1,0,0.2,0c0.2,0,0.3,0,0.5,0c0,0.1,0,0.1,0,0.2c0,0.5,0,1,0,1.5
		c0,0.1,0,0.2,0,0.2c0.1,0,0.2,0,0.3,0c1.4,0,2.7,0,4.1,0c1.8,0,3.5,0,5.3,0c0.4,0,0.8,0,1.2,0c0.3,0,0.6-0.1,0.9-0.2c0,0,0,0,0.1,0
		c0,0,0,0,0,0c0,0.1,0,0.2,0,0.3c0,0,0.1,0,0.1,0c1,0,2,0,3,0c0.3,0,0.7,0,1-0.1c0.3,0,0.5-0.1,0.8-0.3c0,0,0.1,0,0.1-0.1
		c0.1,0,0,0.1,0.1,0.1c0,0,0,0.1,0,0.1c0,2.2,0,4.4,0,6.6c0,0.4-0.1,0.8-0.2,1.2c-0.5,1.2-1.3,2-2.6,2.3c-0.3,0.1-0.6,0.1-0.8,0.1
		c-0.1,0-0.1,0-0.2,0c-12,0-24,0-36,0c-0.3,0-0.5,0-0.8,0c-1.7-0.3-2.9-1.6-3.1-3.3c0-0.1,0-0.3,0-0.4c0-5,0-10,0-15.1
		c0-0.1,0-0.2,0-0.3c0.2,0,0.4,0,0.7,0c0.2,0,0.4,0,0.6,0c0.2,0,0.4,0,0.7,0c0.2-0.4,0.3-0.8,0.5-1.1c0.2,0,1.2,0,1.5,0
		c0.2,0.4,0.3,0.7,0.5,1.1c0.2,0,3.8,0,4,0c0-0.2,0-0.5,0-0.7c0,0,0.1,0,0.1,0.1c0.1,0.2,0.1,0.3,0.2,0.5c0,0.1,0.1,0.1,0.1,0.2
		c0.2,0,2.1,0,2.3,0c0.1-0.2,0.2-0.5,0.3-0.8c0.1,0,0,0.1,0,0.1c0,0.1,0,0.1,0,0.2c0,0,0,0.1,0,0.1c0,0.1,0,0.1,0,0.2
		c0,0,0,0.1,0,0.1c0,0,0.1,0,0.1,0c3.4,0,6.7,0,10.1,0c0,0,0,0,0.1,0c0-0.2,0-0.3,0-0.5c0-0.2,0-0.3,0-0.5c0-0.2,0-0.3,0-0.5
		c0-0.1,0-0.3,0-0.5c0.1-0.1,0.2,0,0.4,0c0.1,0,0.2,0,0.4,0c0,0.1,0,0.1,0,0.2c0,0.5,0,1,0,1.4c0,0.1,0,0.2,0,0.2c0.1,0,0.2,0,0.3,0
		c1,0,1.9,0,2.9,0c0.5,0,1.1,0,1.6,0c0.1,0,0.2,0,0.2,0c0-0.1,0-0.2,0-0.3c0-0.1,0-0.2,0-0.3c0,0,0.1,0,0.1,0
		c0.6,0.4,1.2,0.6,1.9,0.6c0.4,0,0.7,0,1.1,0c0.3,0,0.7,0,1,0c0.1,0,0.1,0,0.2,0c0.2-0.4,0.3-0.7,0.5-1.1c0.2,0,0.3,0,0.5,0
		c0.2,0,0.3,0,0.5,0c0.2,0,0.3,0,0.5,0c0.2,0.4,0.3,0.8,0.5,1.2c1.3,0,2.6,0,3.9,0c0,0,0.1,0,0.1,0c0-0.1,0-0.3,0-0.4
		c0-0.1,0-0.3,0-0.4c0-0.1,0-0.3,0-0.4c0-0.1,0-0.2,0-0.4c0.1,0.1,0.1,0.2,0.2,0.3c0.1,0.1,0.1,0.2,0.2,0.3c0.1,0.1,0.1,0.2,0.2,0.3
		c0,0.1,0.1,0.2,0.1,0.2c0.1,0.1,0.1,0.2,0.2,0.3c0.1,0.1,0.1,0.2,0.2,0.3c0.3,0,3,0,3.2,0c0,0,0-0.1,0-0.1c0-1.5,0-6.6,0-6.8
		c0,0,0,0,0,0c0,0,0,0,0,0c-0.1,0-0.1,0-0.2,0c-0.9,0-1.8,0-2.7,0c0,0,0,0-0.1,0c0,0.2,0,0.4,0,0.6c0,0.2,0,0.4,0,0.6c0,0,0,0,0,0
		c0,0,0,0,0,0c0,0,0,0,0,0c-0.2-0.4-0.5-0.8-0.7-1.2c0,0,0,0,0,0c-1.1,0-2.2,0-3.3,0c0,0.1,0,0.1,0,0.2c0,0.3,0,0.7,0,1
		c0,0.1,0,0.1,0,0.2c0,0,0,0,0,0c0,0,0,0,0,0c0,0,0,0,0-0.1c-0.2-0.4-0.4-0.9-0.6-1.3c0,0,0,0,0,0c-0.1,0-0.1,0-0.2,0
		c-0.7,0-1.3,0-2,0c-0.8,0-1.7,0-2.5,0c-0.3,0-0.6,0-1,0.1c-0.4,0.1-0.8,0.2-1.2,0.5c0,0-0.1,0-0.1,0.1c0,0,0,0,0,0
		c-0.1,0,0-0.1,0-0.1c0-0.2,0-0.3,0-0.5c-0.1,0-0.1,0-0.1,0c-0.9,0-1.8,0-2.8,0c0,0-0.1,0-0.1,0c-0.1,0.1,0,0.3-0.1,0.4
		c-0.1,0-0.1-0.1-0.1-0.1c0,0-0.1,0-0.1-0.1c-0.3-0.1-0.6-0.2-0.9-0.2c-0.3,0-0.7,0-1,0c-1.3,0-2.6,0-3.8,0c-2.4,0-4.8,0-7.3,0
		c-0.1,0-0.2,0-0.3,0c-0.3,0.7-0.6,1.5-1,2.3c-0.2-0.3-0.2-0.5-0.4-0.8c-0.1-0.2-0.2-0.5-0.4-0.8c-0.1-0.2-0.2-0.5-0.3-0.7
		c-0.3,0-0.6,0-0.9,0c-0.3,0-0.6,0-0.9,0c-0.3,0-0.6,0-0.9,0c-0.3,0-0.6,0-0.9,0c0,0.2,0,0.4,0,0.5c0,0.2,0,0.3,0,0.5
		c0,0.2,0,0.3,0,0.5c0-0.1-0.1-0.1-0.1-0.1c-0.2-0.4-0.3-0.8-0.5-1.1c0-0.1-0.1-0.2-0.1-0.3c-0.2,0-2.7,0-3,0
		c-0.3,0.7-0.6,1.3-0.9,2c-0.3,0.7-0.6,1.3-0.9,2c-0.1,0,0-0.1,0-0.1c0,0,0-0.1,0-0.1c0-2.4,0-4.7,0-7.1c0-0.3,0-0.6,0-0.9
		c0-1,0.3-1.8,1-2.5c0.6-0.6,1.3-1,2.1-1.1c0.2,0,0.4,0,0.6,0c2.2,0,4.5,0,6.7,0c9.8,0,19.7,0,29.5,0c0.4,0,0.8,0,1.2,0.1
		c1.2,0.4,2.3,1.4,2.6,2.9c0,0.2,0,0.5,0,0.7c0,2.6,0,5.2,0,7.9c0,1.7,0,3.3,0,5c0,0.1,0,0.2,0,0.3c-0.1,0-0.1,0-0.2,0
		c-0.4,0-0.8,0-1.3,0c-0.4,0-0.8,0-1.3,0C48.8,20,48.3,20.1,47.8,20.3C47.9,20.3,47.9,20.3,47.8,20.3z"/>
	<path class="st0" d="M27.8,24.5c0,0.2,0,0.4,0,0.6c0,0.2,0,0.4,0,0.6c0,0.2,0,0.4,0,0.6c0,0-0.1,0-0.1,0c-0.8,0-1.6,0-2.4,0
		c-0.2-0.2-0.3-0.4-0.5-0.6c-0.2-0.2-0.3-0.4-0.5-0.6c-0.2-0.2-0.3-0.4-0.5-0.6c-0.5,0.6-1.1,1.2-1.6,1.7c-0.4,0-4.8,0-5,0
		c0,0,0,0,0,0c0,0,0,0,0,0c0-1.7,0-3.4,0-5.1c0,0,0,0,0-0.1c0.1-0.1,0.1,0,0.2,0c0.5,0,1,0,1.5,0c1,0,2,0,3,0c0.1,0,0.1,0,0.2,0
		c0.1,0,0.2,0,0.2,0.1c0.2,0.3,0.5,0.5,0.7,0.8c0.2,0.2,0.4,0.5,0.7,0.7c0,0,0.1,0.1,0.1,0.1c0.1-0.1,0.2-0.2,0.3-0.3
		c0.1-0.1,0.2-0.2,0.3-0.3c0.1-0.1,0.2-0.2,0.3-0.3c0.1-0.1,0.2-0.2,0.3-0.3c0.1-0.1,0.2-0.2,0.3-0.3c0.1-0.1,0.2-0.2,0.3-0.3
		c0.1,0,0.1,0,0.2,0c1.3,0,2.5,0,3.8,0c0.3,0,0.6,0,0.9,0.1c0,0,0.1,0,0.1,0c0.7,0.2,1.1,0.7,1.1,1.4c0,0.2,0,0.5,0,0.7
		c-0.1,0.5-0.4,0.8-0.9,1c-0.3,0.1-0.7,0.2-1,0.2c-0.4,0-0.8,0-1.1,0C28.2,24.5,28,24.5,27.8,24.5z M18.4,25.1c0.1,0,0.1,0,0.1,0
		c0.9,0,1.9,0,2.8,0c0.1,0,0.2,0,0.2-0.1c0.4-0.4,0.8-0.9,1.2-1.3c0,0,0.1-0.1,0.1-0.1c0,0,0-0.1,0-0.1c-0.4-0.5-0.8-0.9-1.2-1.4
		c-0.1-0.1-0.1-0.1-0.2-0.1c-1,0-1.9,0-2.9,0c0,0-0.1,0-0.1,0c0,0.3,0,0.7,0,0.9c0.2,0,0.4,0,0.5,0c0.2,0,0.4,0,0.5,0
		c0.2,0,0.3,0,0.5,0c0.2,0,0.4,0,0.5,0c0.2,0,0.4,0,0.5,0c0,0.2,0,0.9,0,1.1c-0.1,0-0.2,0-0.2,0c-0.8,0-1.5,0-2.3,0
		c-0.1,0-0.1,0-0.2,0C18.4,24.5,18.4,24.8,18.4,25.1z M24.6,23.7c0.6,0.7,1.2,1.4,1.9,2c0,0,0,0,0.1,0c0,0,0-0.1,0-0.1
		c0-0.3,0-0.6,0-0.8c0-1,0-2,0-3c0,0,0-0.1-0.1-0.1C25.8,22.3,25.2,23,24.6,23.7z M27.8,23.4c0.1,0,0.1,0,0.2,0c0.5,0,0.9,0,1.4,0
		c0.1,0,0.2,0,0.3,0c0.3-0.1,0.6-0.3,0.6-0.7c0-0.3-0.2-0.5-0.5-0.6c-0.1,0-0.2,0-0.3,0c-0.5,0-1,0-1.5,0c0,0-0.1,0-0.1,0
		C27.8,22.4,27.8,23.2,27.8,23.4z"/>
	<path class="st0" d="M45.6,17.2c-0.9,0-1.7,0-2.5,0c0,0-0.1-0.1-0.1-0.1c-0.1-0.3-0.2-0.5-0.3-0.8c0-0.1-0.1-0.1-0.1-0.2
		c-0.9,0-1.7,0-2.6,0c0,0.1-0.1,0.1-0.1,0.2c-0.1,0.2-0.2,0.5-0.3,0.7c0,0.1-0.1,0.1-0.1,0.2c0,0-0.1,0-0.1,0c-0.6,0-1.2,0-1.8,0
		c-0.3,0-0.6-0.1-0.9-0.2c-0.4-0.2-0.7-0.5-0.9-0.9c-0.1-0.2-0.2-0.5-0.2-0.8c-0.1-0.6-0.1-1.1,0.1-1.7c0-0.1,0.1-0.2,0.1-0.3
		c0.2-0.6,0.7-1,1.3-1.2c0.2-0.1,0.5-0.1,0.7-0.1c0.5,0,0.9,0,1.4,0c0,0,0,0,0.1,0c0,0.1,0,0.2,0,0.4c0,0.1,0,0.2,0,0.4
		c0,0.1,0,0.3,0,0.4c-0.1,0-0.1,0-0.2,0c-0.2,0-0.4,0-0.7,0c-0.2,0-0.4,0-0.5,0c-0.1,0-0.2,0-0.3,0.1c-0.3,0.1-0.5,0.3-0.7,0.6
		c0,0.1-0.1,0.2-0.1,0.4c0,0.4-0.1,0.8,0,1.2c0.1,0.4,0.4,0.7,0.8,0.8c0.3,0,0.6,0,0.9,0c0.6-1.4,1.2-2.8,1.8-4.1c0.2,0,1.6,0,1.9,0
		c0.1,0.3,0.3,0.6,0.4,1c0.1,0.3,0.3,0.6,0.4,1c0.1,0.3,0.3,0.7,0.4,1c0.1,0.3,0.3,0.6,0.4,1c0.1,0.3,0.3,0.7,0.4,1c0.1,0,0,0,0-0.1
		c0,0,0-0.1,0-0.1c0-1.5,0-2.9,0-4.4c0-0.1,0-0.2,0-0.3c0.2,0,1.6,0,1.9,0c0.2,0.4,0.5,0.8,0.7,1.2c0.2,0.4,0.5,0.8,0.7,1.2
		c0.2,0.4,0.5,0.8,0.7,1.2c0,0,0,0,0,0c0,0,0,0,0,0c0,0,0,0,0,0c0,0,0,0,0,0c0,0,0,0,0-0.1c0-1.1,0-2.1,0-3.2c0,0,0,0,0,0
		c0,0,0,0,0,0c0,0,0,0,0,0s0,0,0,0c0,0,0,0,0,0c0,0,0,0,0,0c0,0,0,0,0,0c0,0,0,0,0,0c0,0,0,0,0,0c0.1,0,0.3,0,0.4,0
		c0.1,0,0.3,0,0.4,0c0.1,0,0.3,0,0.4,0c0,0.1,0,0.1,0,0.1c0,0.2,0,0.5,0,0.7c0,1.4,0,2.7,0,4.1c0,0.1,0,0.2,0,0.3c0,0-0.1,0-0.1,0
		c-0.5,0-1.1,0-1.6,0c0,0,0,0-0.1,0c-0.3-0.4-0.5-0.8-0.8-1.3c-0.3-0.4-0.5-0.9-0.8-1.3c-0.3-0.4-0.5-0.9-0.8-1.3c0,0.1,0,0.2,0,0.2
		c0,0.1,0,0.1,0,0.2c0,0.1,0,0.1,0,0.2c0,0.1,0,0.1,0,0.2c0,0.1,0,0.1,0,0.2c0,0.1,0,0.1,0,0.2c0,0.1,0,0.1,0,0.2s0,0.1,0,0.2
		c0,0.1,0,0.1,0,0.2c0,0.1,0,0.1,0,0.2s0,0.1,0,0.2s0,0.1,0,0.2s0,0.1,0,0.2s0,0.1,0,0.2c0,0.1,0,0.1,0,0.2c0,0.1,0,0.1,0,0.2
		c0,0.1,0,0.1,0,0.2c0,0.1,0,0.1,0,0.2s0,0.1,0,0.2C45.6,17,45.6,17.1,45.6,17.2z M41.3,12.9C41.3,12.9,41.3,13,41.3,12.9
		c-0.3,0.7-0.6,1.3-0.8,1.9c0,0,0,0.1,0,0.1c0.3,0,1.5,0,1.7,0c0,0,0-0.1,0-0.1C41.9,14.3,41.4,13.1,41.3,12.9z"/>
	<path class="st0" d="M10.5,12c0.6,0,1.2,0,1.9,0c0.2,0.5,0.5,1.1,0.7,1.6c0.2,0.5,0.5,1.1,0.7,1.6c0.2,0.5,0.5,1.1,0.7,1.6
		c0.1,0,0.1,0,0.1-0.1c0-0.1,0-0.1,0-0.2c0-1.4,0-2.8,0-4.3c0-0.1,0-0.2,0-0.2c0,0,0,0,0,0c0,0,0,0,0,0c0.6,0,1.2,0,1.8,0
		c0.1,0,0.1,0,0.2,0c0.5,1.2,1.1,2.3,1.6,3.5c0.2-0.3,0.3-0.6,0.4-0.9c0.1-0.3,0.3-0.6,0.4-0.9c0.1-0.3,0.2-0.6,0.4-0.9
		c0.1-0.3,0.2-0.6,0.4-0.9c0.7,0,1.3,0,2,0c0,0,0.1,0,0.1,0c0,0,0,0.1,0,0.1c0,1.7,0,3.4,0,5.1c0,0-0.1,0-0.1,0c-0.4,0-0.7,0-1.1,0
		c0,0,0,0-0.1,0c0-0.3,0-0.5,0-0.8c0-0.3,0-0.5,0-0.8c0-0.3,0-0.5,0-0.8c0-0.3,0-0.5,0-0.8c0-0.3,0-0.5,0-0.8c-0.1,0-0.1,0-0.1,0.1
		c-0.3,0.6-0.5,1.2-0.8,1.8c-0.3,0.6-0.5,1.2-0.8,1.8c0,0.1-0.1,0.1-0.1,0.2c-0.2,0-0.8,0-1.1,0c-0.6-1.3-1.2-2.7-1.8-4
		c-0.1,0,0,0,0,0.1c0,0,0,0.1,0,0.1c0,1.2,0,2.4,0,3.6c0,0.1,0,0.2,0,0.2c0,0,0,0,0,0c0,0,0,0,0,0c0,0-0.1,0-0.1,0
		c-0.8,0-1.6,0-2.3,0c-0.1-0.2-0.2-0.4-0.3-0.6c-0.1-0.2-0.2-0.4-0.2-0.6c-0.2,0-2.4,0-2.6,0c-0.2,0.4-0.3,0.7-0.5,1.1
		c-0.2,0-1.1,0-1.3,0c0,0,0,0,0,0C9.1,15.4,9.8,13.7,10.5,12z M11.4,12.9c-0.3,0.7-0.5,1.3-0.8,2c0,0,0,0.1,0,0.1c0.1,0,0.3,0,0.4,0
		c0.1,0,0.3,0,0.4,0c0.1,0,0.3,0,0.4,0c0.1,0,0.3,0,0.4,0C12.2,14.7,11.8,13.7,11.4,12.9z"/>
	<path class="st0" d="M36.3,23.8c0.1,0,0.1,0.1,0.2,0.1c0.3,0.2,0.5,0.4,0.6,0.8c0,0.1,0,0.2,0,0.3c0,0.4,0,0.8,0,1.1c0,0,0,0,0,0.1
		c-0.1,0-0.3,0-0.4,0c-0.1,0-0.3,0-0.4,0c-0.1,0-0.3,0-0.4,0c0-0.1,0-0.1,0-0.2c0-0.3,0-0.5,0-0.8c0-0.1,0-0.3-0.1-0.4
		c-0.1-0.2-0.2-0.4-0.5-0.5c-0.1,0-0.2,0-0.3,0c-0.5,0-1,0-1.5,0c0,0,0,0-0.1,0c0,0.3,0,0.6,0,0.9c0,0.3,0,0.6,0,0.9
		c-0.2,0-1,0-1.2,0c0-0.1,0-0.2,0-0.3c0-1.2,0-2.4,0-3.5c0-0.4,0-0.8,0-1.2c0-0.1,0-0.1,0-0.2c0.1,0,0.1,0,0.2,0c1,0,2,0,2.9,0
		c0.3,0,0.6,0,0.9,0.1c0.1,0,0.2,0.1,0.2,0.1c0.4,0.2,0.7,0.5,0.7,0.9c0.1,0.4,0,0.8-0.2,1.1c-0.1,0.2-0.3,0.4-0.5,0.5
		C36.4,23.8,36.4,23.8,36.3,23.8z M33.4,23.2C33.4,23.3,33.4,23.3,33.4,23.2c0.6,0,1.2,0,1.8,0c0.1,0,0.2,0,0.3,0
		c0.3-0.1,0.4-0.3,0.4-0.6c0-0.2-0.2-0.4-0.4-0.5c-0.1,0-0.2,0-0.4,0c-0.5,0-1,0-1.5,0c0,0-0.1,0-0.1,0
		C33.4,22.5,33.4,22.9,33.4,23.2z"/>
	<path class="st0" d="M29.1,15.3c0,0.2,0,0.4,0,0.6c0,0.2,0,0.4,0,0.6c0,0.2,0,0.4,0,0.6c-0.2,0-1,0-1.2,0c0,0,0-0.1,0-0.1
		c0-0.8,0-4.9,0-5.1c0,0,0.1,0,0.1,0c1,0,2,0,3,0c0.3,0,0.5,0,0.8,0.1c0.2,0,0.3,0.1,0.4,0.1c0.3,0.2,0.6,0.4,0.6,0.8
		c0.1,0.3,0.1,0.7-0.1,1c-0.1,0.3-0.3,0.6-0.6,0.8c0,0-0.1,0-0.1,0.1c0.1,0,0.1,0.1,0.1,0.1c0.4,0.2,0.6,0.5,0.7,1
		c0,0.2,0,0.3,0,0.5c0,0.2,0,0.5,0,0.7c0,0,0,0.1,0,0.1c-0.2,0-0.8,0.1-1.2,0c0,0,0-0.1,0-0.2c0-0.3,0-0.5,0-0.8c0-0.1,0-0.3,0-0.4
		c0-0.2-0.2-0.4-0.4-0.5c-0.1,0-0.2-0.1-0.3-0.1c-0.1,0-0.3,0-0.4,0c-0.4,0-0.8,0-1.2,0C29.2,15.3,29.2,15.3,29.1,15.3z M29.1,14.2
		C29.1,14.2,29.2,14.2,29.1,14.2c0.6,0,1.1,0,1.6,0c0.1,0,0.2,0,0.4,0c0.3-0.1,0.4-0.3,0.4-0.6c0-0.3-0.2-0.4-0.5-0.5
		c-0.1,0-0.2,0-0.4,0c-0.5,0-1,0-1.4,0c0,0-0.1,0-0.1,0C29.1,13.3,29.1,14,29.1,14.2z"/>
	<path class="st0" d="M24,13.1c0,0.3,0,0.6,0,0.9c0.1,0.1,0.2,0,0.2,0c0.8,0,1.6,0,2.4,0c0.1,0,0.2,0,0.2,0c0.1,0.1,0,0.2,0,0.4
		c0,0.1,0,0.2,0,0.3c0,0.1,0,0.2,0,0.3c-0.1,0.1-0.2,0-0.2,0c-0.8,0-1.6,0-2.3,0c-0.1,0-0.2,0-0.3,0c0,0.2-0.1,0.8,0,1
		c0.3,0,0.6,0,1,0c0.3,0,0.6,0,1,0c0.3,0,0.6,0,1,0c0.1,0.1,0,0.2,0,0.4c0,0.1,0,0.2,0,0.4c0,0.1,0,0.2,0,0.3c0,0-0.1,0-0.1,0
		c-1.3,0-2.7,0-4,0c0,0,0,0-0.1,0c-0.1-0.1,0-0.1,0-0.2c0-0.5,0-1,0-1.5c0-1.1,0-2.2,0-3.2c0-0.1,0-0.2,0-0.3c0,0,0.1,0,0.1,0
		c1.4,0,2.7,0,4.1,0c0.1,0.2,0,0.4,0,0.5c0,0.2,0,0.3,0,0.5c-0.1,0.1-0.2,0-0.2,0c-0.8,0-1.6,0-2.4,0C24.2,13.1,24.1,13.1,24,13.1z"
		/>
	<path class="st0" d="M39.2,24.1c0,0.2,0,0.8,0,1c0.1,0,0.1,0,0.2,0c0.8,0,1.6,0,2.4,0c0.1,0,0.2,0,0.2,0c0,0.2,0.1,0.7,0,1.1
		c-0.1,0-0.2,0-0.2,0c-1.1,0-2.1,0-3.2,0c-0.2,0-0.3,0-0.5,0c-0.1,0-0.1,0-0.2,0c0-0.1,0-0.2,0-0.3c0-1.2,0-2.4,0-3.6
		c0-0.4,0-0.8,0-1.1c0-0.1,0-0.1,0-0.2c0,0,0.1,0,0.1,0c1.3,0,2.7,0,4,0c0.1,0.2,0,0.4,0,0.5c0,0.2,0,0.3,0,0.5c-0.1,0-0.2,0-0.3,0
		c-0.8,0-1.6,0-2.4,0c-0.1,0-0.2,0-0.2,0c0,0.2,0,0.7,0,0.9c0.1,0,0.2,0,0.2,0c0.8,0,1.6,0,2.4,0c0.1,0,0.2,0,0.2,0
		c0,0.1,0,0.2,0,0.4c0,0.1,0,0.2,0,0.3c0,0.1,0,0.2,0,0.4c-0.1,0-0.2,0-0.2,0c-0.8,0-1.6,0-2.4,0C39.3,24.1,39.2,24.1,39.2,24.1z"/>
	<path class="st0" d="M47,21c0,0.2,0,0.9,0,1.1c-0.1,0-0.2,0-0.2,0c-0.7,0-1.3,0-2,0c-0.1,0-0.2,0-0.3,0c-0.1,0-0.1,0-0.2,0
		c-0.3,0.1-0.4,0.3-0.3,0.6c0,0.1,0.1,0.2,0.2,0.2c0.1,0,0.2,0.1,0.2,0.1c0.2,0,0.4,0,0.6,0c0.3,0,0.6,0,0.9,0
		c0.2,0,0.4,0.1,0.5,0.1c0.3,0.1,0.5,0.4,0.6,0.7c0.1,0.5,0.1,0.9,0,1.4c-0.1,0.4-0.4,0.6-0.8,0.8c-0.3,0.1-0.5,0.2-0.8,0.2
		c-0.1,0-0.2,0-0.4,0c-0.7,0-1.4,0-2.1,0c-0.1,0-0.2,0-0.2,0c-0.1-0.2,0-0.4,0-0.5c0-0.2,0-0.4,0-0.5c0.1,0,0.2,0,0.3,0
		c0.7,0,1.4,0,2,0c0.1,0,0.2,0,0.3,0c0.1,0,0.1,0,0.2-0.1c0.2-0.1,0.3-0.2,0.3-0.4c0-0.2-0.1-0.3-0.2-0.4c-0.2-0.1-0.4-0.1-0.6-0.1
		c-0.3,0-0.6,0-0.9,0c-0.2,0-0.4,0-0.6-0.1c-0.5-0.1-0.8-0.5-0.9-1c0-0.3,0-0.5,0-0.8c0.1-0.4,0.3-0.8,0.7-1
		c0.2-0.1,0.4-0.2,0.7-0.2c0.1,0,0.3,0,0.4,0c0.7,0,1.5,0,2.2,0C46.8,21,46.9,21,47,21z"/>
	<path class="st0" d="M47.7,26.3c0-0.4,0-0.7,0-1.1c0.1-0.1,0.2,0,0.2,0c0.7,0,1.4,0,2.1,0c0.1,0,0.3,0,0.4,0
		c0.2-0.1,0.3-0.2,0.3-0.5c0-0.1-0.1-0.3-0.2-0.3c-0.1-0.1-0.2-0.1-0.4-0.1c-0.2,0-0.4,0-0.6,0c-0.3,0-0.6,0-0.9-0.1
		c-0.1,0-0.3-0.1-0.4-0.1c-0.3-0.1-0.5-0.4-0.6-0.7c-0.1-0.3-0.1-0.6-0.1-0.9c0.1-0.6,0.5-1,1-1.1c0.2-0.1,0.4-0.1,0.7-0.1
		c0.8,0,1.7,0,2.5,0c0,0,0.1,0,0.1,0c0,0.1,0,0.2,0,0.4c0,0.1,0,0.2,0,0.4c0,0.1,0,0.2,0,0.4c-0.1,0-0.1,0-0.2,0c-0.7,0-1.4,0-2,0
		c-0.1,0-0.3,0-0.4,0c-0.3,0.1-0.4,0.3-0.3,0.6c0,0.1,0.1,0.2,0.2,0.2c0.1,0.1,0.3,0.1,0.4,0.1c0.2,0,0.3,0,0.5,0c0.3,0,0.5,0,0.8,0
		c0.2,0,0.4,0.1,0.6,0.2c0.1,0,0.1,0.1,0.2,0.1c0.2,0.1,0.3,0.2,0.3,0.5c0,0.5,0,1,0,1.5c0,0.2-0.1,0.3-0.2,0.4
		c-0.2,0.1-0.3,0.3-0.5,0.3c-0.2,0.1-0.5,0.1-0.7,0.1c-0.3,0-0.5,0-0.8,0c-0.6,0-1.1,0-1.7,0C47.9,26.3,47.8,26.3,47.7,26.3z"/>
	<path class="st0" d="M33.6,12c0.3,0,1.1,0,1.3,0c0,0,0,0.1,0,0.1c0,0.3,0,0.5,0,0.8c0,1.4,0,2.7,0,4.1c0,0.1,0,0.2,0,0.3
		c-0.1,0-0.3,0-0.4,0c-0.1,0-0.3,0-0.4,0c-0.1,0-0.3,0-0.4,0c-0.1-0.1,0-0.2,0-0.2c0-0.8,0-1.6,0-2.4c0-0.8,0-1.6,0-2.4
		C33.6,12.1,33.6,12.1,33.6,12z"/>
</g>
</svg>
