<?xml version="1.0" encoding="utf-8"?>
<!-- Generator: Adobe Illustrator 27.2.0, SVG Export Plug-In . SVG Version: 6.00 Build 0)  -->
<svg version="1.1" id="Camada_1" xmlns="http://www.w3.org/2000/svg" xmlns:xlink="http://www.w3.org/1999/xlink" x="0px" y="0px"
	 viewBox="0 0 60 40" style="enable-background:new 0 0 60 40;" xml:space="preserve">
<style type="text/css">
	.st0{fill:#FFFFFF;}
	.st1{opacity:0.5;fill:#FFFFFF;}
</style>
<g>
	<path class="st0" d="M30,26.8c-0.7,0.4-1.4,0.9-2.1,1.3C27,28.6,26,29,25,29.2c-0.7,0.1-1.5,0.2-2.2,0.3c-0.8,0.1-1.6,0-2.4-0.1
		c-1.1-0.1-2.2-0.4-3.3-0.9c-1-0.4-2-1-2.8-1.6c-0.8-0.6-1.5-1.3-2.1-2c-0.8-1-1.5-2.2-2-3.4c-0.4-1-0.7-2-0.8-3
		c-0.1-0.8-0.1-1.6-0.1-2.5c0.1-1.9,0.6-3.7,1.5-5.3c0.4-0.8,0.9-1.5,1.5-2.2c0.9-1,1.8-1.9,2.9-2.6c0.7-0.5,1.5-0.8,2.3-1.1
		c0.9-0.4,1.9-0.6,2.8-0.7c0.9-0.1,1.9-0.2,2.8-0.1c1,0.1,2.1,0.3,3.1,0.6c1.3,0.5,2.5,1.1,3.6,1.9c0.1,0.1,0.1,0.1,0.2,0.2
		c-0.1,0.1-0.2,0.2-0.2,0.2C29.2,7.4,28.5,8,28,8.7c-1.7,2.1-2.6,4.5-2.8,7.2c-0.1,1.3,0,2.6,0.3,3.8c0.4,1.6,1,3.1,2.1,4.5
		c0.5,0.7,1.1,1.3,1.6,1.9C29.4,26.3,29.7,26.5,30,26.8z"/>
	<path class="st1" d="M30.1,6.6c0.4-0.3,0.8-0.6,1.3-0.9c0.7-0.4,1.4-0.7,2.2-1c0.9-0.4,1.8-0.5,2.7-0.7c1-0.2,2-0.1,3.1-0.1
		c1.2,0.1,2.3,0.4,3.3,0.8c1.5,0.5,2.8,1.4,4,2.5c1.4,1.3,2.5,2.8,3.2,4.5c0.4,0.9,0.6,1.8,0.8,2.8c0.1,0.9,0.2,1.8,0.2,2.7
		c0,1-0.2,2-0.5,2.9c-0.5,1.7-1.3,3.2-2.4,4.6c-1.3,1.6-2.9,2.9-4.9,3.7c-0.8,0.4-1.7,0.6-2.6,0.8c-0.6,0.1-1.2,0.2-1.8,0.2
		c-0.4,0-0.8,0.1-1.2,0c-0.7-0.1-1.3-0.1-2-0.2c-0.7-0.1-1.4-0.3-2.1-0.6c-1.2-0.5-2.4-1.1-3.4-1.9c0.1-0.1,0.2-0.2,0.3-0.4
		c0.6-0.6,1.2-1.1,1.7-1.8c0.8-1,1.5-2.1,1.9-3.4c0.8-2,1-4,0.8-6.1c-0.1-1.3-0.5-2.5-1-3.7c-0.8-1.8-1.9-3.3-3.4-4.6
		C30.3,6.8,30.2,6.7,30.1,6.6z"/>
	<path class="st0" d="M30.1,6.6c0.1,0.1,0.2,0.2,0.3,0.3c1.5,1.3,2.6,2.8,3.4,4.6c0.5,1.2,0.9,2.4,1,3.7c0.2,2.1,0,4.1-0.8,6.1
		c-0.5,1.2-1.1,2.4-1.9,3.4c-0.5,0.6-1.2,1.2-1.7,1.8c-0.1,0.1-0.2,0.2-0.3,0.4c0,0-0.1,0-0.1,0c-0.3-0.3-0.6-0.5-0.9-0.8
		c-0.6-0.6-1.1-1.2-1.6-1.9c-1-1.3-1.6-2.9-2.1-4.5c-0.3-1.3-0.4-2.5-0.3-3.8c0.2-2.7,1.1-5.1,2.8-7.2c0.5-0.7,1.2-1.2,1.8-1.8
		C29.8,6.8,29.9,6.7,30.1,6.6C30,6.6,30.1,6.6,30.1,6.6z"/>
	<path class="st0" d="M11.4,35.9c0-1.1,0-2.2,0-3.3c0.2,0,0.5,0,0.7,0c0,0.1,0,0.2,0,0.3c0.8-0.6,1.5-0.6,2.1,0.1
		c0.2-0.1,0.3-0.3,0.5-0.4c0.9-0.5,2.1,0.1,2,1.2c0,0.7,0,1.4,0,2.1c-0.2,0-0.5,0-0.8,0c0-0.6,0-1.2,0-1.9c0.1-0.1,0.1-0.2,0-0.3
		c-0.1-0.5-0.3-0.7-0.8-0.7c-0.5,0-0.7,0.4-0.8,0.8c0,0.6,0,1.3,0,1.9c-0.2,0-0.5,0-0.7,0c0,0,0,0-0.1,0c0-0.6,0-1.2,0-1.7
		c0-0.2-0.1-0.5-0.2-0.7c-0.2-0.3-0.5-0.3-0.7-0.3c-0.3,0-0.5,0.2-0.6,0.5c0,0.1-0.1,0.3-0.1,0.4c0,0.6,0,1.2,0,1.9
		C11.9,36,11.7,36,11.4,35.9C11.5,36,11.4,35.9,11.4,35.9z"/>
	<path class="st0" d="M48.1,31.2c0.3,0,0.5,0,0.7,0c0,0.1,0,0.2,0,0.2c0,1.4,0,2.8,0,4.2c0,0.2-0.1,0.3-0.3,0.3c0,0-0.1,0-0.1,0
		c-0.3,0-0.3,0-0.4-0.4c-0.4,0.5-0.9,0.5-1.4,0.4c-0.5-0.1-0.9-0.4-1.2-0.8c-0.4-0.7-0.3-1.5,0.2-2.1c0.7-0.7,1.4-0.8,2.4-0.2
		C48.1,32.3,48.1,31.8,48.1,31.2z M46,34.3c0,0.5,0.5,1,1,1c0.7,0,1.1-0.4,1.1-1c0-0.5-0.3-1.1-1.2-1C46.5,33.4,46,33.8,46,34.3z"/>
	<path class="st0" d="M41.2,32.9c0-0.1,0-0.2,0-0.3c0.2,0,0.5,0,0.7,0c0,1.1,0,2.2,0,3.4c-0.2,0-0.5,0-0.7,0c0-0.1,0-0.2,0-0.4
		c-0.3,0.4-0.8,0.5-1.2,0.5c-0.5,0-0.9-0.2-1.2-0.6c-0.7-0.9-0.6-1.7,0.1-2.4C39.4,32.4,40.3,32.2,41.2,32.9z M41.2,34.3
		c0.1-0.6-0.4-1-1-1c-0.5,0-1,0.5-1,1c0,0.6,0.5,1.1,1,1.1C40.6,35.4,41.2,35,41.2,34.3z"/>
	<path class="st0" d="M20.3,32.9c0-0.1,0-0.2,0-0.3c0.2,0,0.5,0,0.7,0c0,0,0,0.1,0,0.1c0,1,0,2,0,3c0,0.2-0.1,0.3-0.3,0.3
		c-0.1,0-0.3,0-0.5,0c0-0.1,0-0.2,0-0.4c-0.5,0.5-1.1,0.6-1.7,0.4c-0.4-0.1-0.7-0.4-0.9-0.7c-0.5-0.8-0.4-1.7,0.2-2.3
		c0.3-0.3,0.7-0.5,1.2-0.5C19.5,32.5,19.9,32.6,20.3,32.9C20.2,32.9,20.3,32.9,20.3,32.9z M19.3,33.3c-0.6,0-1,0.4-1,0.9
		c0,0.7,0.4,1.1,1,1.1c0.6,0,1.1-0.5,1.1-1C20.3,33.9,19.8,33.2,19.3,33.3z"/>
	<path class="st0" d="M29.3,34.6c0.1,0.8,1.1,1.1,2,0.5c0.1,0.1,0.2,0.3,0.3,0.4c0,0,0,0.2-0.1,0.2c-0.8,0.4-1.5,0.5-2.3,0
		c-0.5-0.4-0.8-0.9-0.7-1.5c0-0.4,0.1-0.7,0.4-1c0.3-0.4,1-0.7,1.5-0.6c1.1,0.2,1.6,0.8,1.5,2C31,34.6,30.1,34.6,29.3,34.6z M31,34
		c-0.1-0.6-0.5-0.9-1-0.8c-0.5,0.1-0.8,0.4-0.7,0.8C29.9,34,30.4,34,31,34z"/>
	<path class="st0" d="M21.7,35.6c0.1-0.2,0.2-0.4,0.4-0.6c0.4,0.4,0.9,0.4,1.4,0.3c0.1,0,0.3-0.1,0.4-0.2c0.2-0.2,0.2-0.4-0.1-0.5
		c-0.3-0.1-0.6-0.1-0.9-0.2c-0.5-0.1-1.1-0.5-1-1.1c0-0.4,0.4-0.8,0.9-0.9c0.6-0.1,1.2,0,1.7,0.2c0.2,0.1,0.2,0.1,0.1,0.3
		c0,0,0,0.1-0.1,0.1c-0.1,0.2-0.2,0.3-0.5,0.2c-0.3-0.1-0.7-0.2-1.1-0.1c-0.1,0-0.3,0.2-0.3,0.3c0,0.1,0.2,0.2,0.3,0.3
		c0.3,0.1,0.7,0.1,1,0.2c0.6,0.2,0.9,0.4,0.8,1c0,0.4-0.2,0.7-0.6,0.8C23.3,36.2,22.5,36.2,21.7,35.6C21.7,35.6,21.7,35.6,21.7,35.6
		z"/>
	<path class="st0" d="M26.7,35.1c0.2,0.3,0.3,0.3,0.7,0.2c0.1,0,0.3-0.1,0.4-0.1c0.1,0.2,0.1,0.3,0.2,0.5c0,0,0,0.1-0.1,0.2
		c-0.5,0.2-1,0.4-1.6,0C26,35.7,26,35.3,26,34.9c0-0.6,0-1.1,0-1.7c-0.2,0-0.5,0-0.7,0c0-0.2,0-0.4,0-0.7c0.2,0,0.4,0,0.7,0
		c0-0.3,0-0.6,0-1c0.3,0,0.5,0,0.8,0c0,0.3,0,0.6,0,1c0.4,0,0.8,0,1.2,0c0,0.2,0,0.4,0,0.7c-0.4,0-0.8,0-1.2,0
		C26.7,33.9,26.7,34.5,26.7,35.1C26.7,35.1,26.7,35.1,26.7,35.1z"/>
	<path class="st0" d="M38,32.9c-0.1,0.2-0.2,0.4-0.3,0.6c-0.6-0.3-1.2-0.5-1.6,0.1c-0.4,0.5-0.4,1,0,1.4c0.5,0.6,1.1,0.4,1.6,0.1
		c0.1,0.2,0.2,0.4,0.3,0.6c-0.6,0.6-2,0.6-2.6-0.1c-0.6-0.7-0.6-1.7,0-2.4C35.9,32.3,37.4,32.3,38,32.9z"/>
	<path class="st0" d="M33.3,32.6c0,0.1,0,0.2,0,0.4c0.4-0.5,0.9-0.6,1.4-0.4c-0.1,0.2-0.1,0.4-0.2,0.6c0,0.1-0.2,0.1-0.3,0.1
		c-0.5-0.2-0.9,0.1-0.9,0.7c0,0.7,0,1.3,0,2c-0.3,0-0.5,0-0.7,0c0-1.1,0-2.2,0-3.4C32.8,32.6,33,32.6,33.3,32.6z"/>
	<path class="st0" d="M42.9,32.6c0.2,0,0.4,0,0.7,0c0,0.1,0,0.2,0,0.4c0.4-0.5,0.9-0.6,1.4-0.4c0,0.1,0,0.1-0.1,0.2
		c0,0.1-0.1,0.3-0.2,0.4c-0.1,0.1-0.3,0-0.4,0c-0.4,0-0.8,0.3-0.8,0.7c0,0.7,0,1.3,0,2c-0.2,0-0.5,0-0.7,0
		C42.9,34.8,42.9,33.7,42.9,32.6z"/>
	<path class="st0" d="M16,33.8c0.1,0.1,0.1,0.2,0,0.3C16.1,34,16,33.9,16,33.8z"/>
	<path class="st0" d="M26.7,35.1C26.7,35.1,26.7,35.1,26.7,35.1C26.7,35.1,26.7,35.1,26.7,35.1z"/>
	<path class="st0" d="M11.4,35.9C11.4,35.9,11.5,36,11.4,35.9C11.5,36,11.4,35.9,11.4,35.9z"/>
	<path class="st0" d="M13.7,35.9C13.8,35.9,13.8,36,13.7,35.9C13.8,36,13.8,35.9,13.7,35.9z"/>
</g>
</svg>
